<?xml version="1.0" standalone="no"?>
<!DOCTYPE svg PUBLIC "-//W3C//DTD SVG 1.1//EN" "http://www.w3.org/Graphics/SVG/1.1/DTD/svg11.dtd" >
<svg xmlns="http://www.w3.org/2000/svg">
<metadata>Generated by IcoMoon</metadata>
<defs>
<font id="icon200" horiz-adv-x="1024">
<font-face units-per-em="1024" ascent="960" descent="-64" />
<missing-glyph horiz-adv-x="1024" />
<glyph unicode="&#x20;" d="" horiz-adv-x="512" />
<glyph unicode="&#xe600;" d="M968.642 49.436l-321.342 321.534c54.536 63.852 87.414 146.514 87.414 236.97 0 201.434-163.428 364.86-364.86 364.86s-364.86-163.426-364.86-364.86c0-201.432 163.426-364.86 364.86-364.86 90.454 0 173.31 32.876 236.966 87.416l321.534-321.534c5.512-5.51 12.922-8.36 20.146-8.36 7.22 0 14.628 2.85 20.142 8.36 11.212 11.4 11.212 29.264 0 40.474zM152.076 390.166c-57.96 58.148-90.074 135.492-90.074 217.774s32.114 159.626 90.074 217.776c58.15 57.958 135.494 90.074 217.776 90.074s159.626-32.116 217.774-90.074c57.96-58.15 90.076-135.494 90.076-217.776s-32.116-159.626-90.076-217.774c-58.148-58.15-135.492-90.076-217.774-90.076s-159.624 32.116-217.776 90.076zM167.85 579.054c-15.776 0-28.504 12.732-28.504 28.504v0c0 15.774 12.73 28.504 28.504 28.504v0h404.768c15.772 0 28.5-12.732 28.5-28.504v0c0-15.772-12.728-28.504-28.5-28.504v0h-404.768z" />
<glyph unicode="&#xe601;" d="M565.284 637.452h-173.162v172.974c0 15.708-12.68 28.386-28.388 28.386-15.71 0-28.386-12.68-28.386-28.386v-173.162h-173.162c-15.71 0-28.386-12.68-28.386-28.386 0-15.708 12.676-28.388 28.386-28.388h173.162v-173.162c0-15.708 12.676-28.386 28.386-28.386 15.708 0 28.388 12.68 28.388 28.386v173.162h173.162c15.708 0 28.384 12.68 28.384 28.388 0 15.706-12.678 28.574-28.384 28.574zM959.676 53.244l-320.018 320.208c54.31 63.588 87.052 145.91 87.052 235.992 0.002 200.604-162.75 363.356-363.354 363.356-200.602 0-363.356-162.752-363.356-363.356 0-200.604 162.752-363.356 363.356-363.356 90.082 0 172.596 32.738 235.988 87.052l320.208-320.208c5.488-5.486 12.868-8.324 20.062-8.324 7.192 0 14.568 2.838 20.060 8.324 11.168 11.358 11.168 29.148 0.002 40.312zM580.232 392.568c-57.908-57.912-134.932-89.706-216.876-89.706-81.944 0-158.968 31.984-216.878 89.706-57.72 57.908-89.702 134.932-89.702 216.876 0 81.944 31.982 158.968 89.702 216.878 57.912 57.72 134.936 89.704 216.878 89.704 81.944 0 158.968-31.982 216.876-89.704 57.72-57.91 89.706-134.934 89.706-216.878 0-81.944-31.984-158.968-89.706-216.876z" />
<glyph unicode="&#xe606;" d="M1003.6 146c-10 42.8-32.202 73.8-33 75.2l-1.8 2.602-456.8 384.198c33.4 61.6 35.2 128.4 4.798 194.4-22.398 48.6-55.2 81.2-62.2 88-48.198 55.4-165.198 63.6-230.998 63.6-17.4 0-28.4-0.6-28.8-0.6-10-0.6-19-7-22.798-16.6-3.8-9.4-1.6-20.2 5.6-27.6l119-122.4-4.8-114.4-114.402-1.6-119 122.6c-7.202 7.4-17.8 9.8-27.4 6.4s-16.2-12.2-17.2-22.4c-0.2-2-4-48.8 0.202-103.4 5.798-76.4 24.4-129.6 55.2-158 10.6-11.8 83.202-89 185.202-89v0c32.6 0 64.798 8 95.798 23.8l378-460.8 2.4-1.8c1.2-1 31.798-24 74.2-35.2 16-4.2 31.4-6.4 46.4-6.4 40.6 0 77.6 15.4 108.6 45.6 42.798 41 57.798 94.4 43.798 153.8zM254.4 479c-83.8 0-146.4 71.4-147 72.2-0.8 0.8-1.602 1.8-2.4 2.6-29 25.8-39.6 97-41 159.2l84-86.4c5-5.2 11.798-8 19-7.8l150.2 2.2c13.8 0.2 25 11.2 25.6 24.8l6.4 150c0.4 7.2-2.4 14.2-7.4 19.2l-83.8 86.2c78.6-3.6 136.6-20 157.798-45.4 0.8-0.8 1.602-1.8 2.4-2.6 0.4-0.2 32-29.4 52-73.8 25-55.6 21-109.4-12.2-160.2l-117.8-114.4c-27.798-17.2-56.798-25.8-85.798-25.8v0zM923.8 29.2c-64.4-62.6-144.798-11.6-159.4-1.6l-372.6 454.4 87.8 85.4 450.4-379c10.2-15.4 58-96.8-6.2-159.2z" />
<glyph unicode="&#xe609;" d="M515.988 949.212c5.708 0 11.59-4.458 15.868-13.196l424.552-849.098c8.734-17.476-0.182-31.918-19.794-31.918h-841.43c-19.614 0-28.53 14.264-19.794 31.918l424.552 849.098c4.458 8.738 10.164 13.196 16.046 13.196M515.988 848.29l-369.986-739.798h739.796l-369.81 739.798zM465.35 215.834c0 25.854 19.080 46.894 50.46 46.894 29.602 0 48.682-21.042 48.682-46.894 0-26.568-19.794-46.894-49.926-46.894-30.138 0-48.504 20.326-49.216 46.894zM542.022 611.854c11.054 0 20.148-9.092 20.148-20.148v-247.848c0-11.054-9.094-20.148-20.148-20.148h-53.492c-11.056 0-20.148 9.094-20.148 20.148v247.848c0 11.056 9.092 20.148 20.148 20.148h53.492z" />
<glyph unicode="&#xe60a;" d="M535.8 878.4c-4.798 0-10.398-2.2-16.398-6.8l-334.602-258c-8.8 14-24.6 26.4-52.8 26.4h-35.6c0 0-7.202 0-28.4 0-64 0-64-64-64-64v-256c0 0 0-64 64-64s0 0 64 0c28.2 0 44 12.4 52.798 26.4l334.602-258c6-4.6 11.6-6.8 16.398-6.8 9.202 0 15.202 8 15.202 22.4v816c0 14.4-6.2 22.4-15.2 22.4zM134.8 316.202c-0.8 0-1.6-0.202-2.8-0.202h-64c-1.202 0-2.202 0-2.8 0.202-0.6 1.398-1 3.398-1.2 5v253.598c0.2 1.6 0.6 3.6 1.2 5 0.8 0 1.6 0.2 2.8 0.2h64c1.2 0 2.2 0 2.798-0.2 0.602-1.4 1-3.4 1.202-5v-38c0-0.2 0-0.6 0-0.8v-176c0-0.2 0-0.6 0-0.798v-38c-0.2-1.602-0.6-3.602-1.2-5zM491 122l-286.6 221c-3.202 3-8 12.6-8.4 17.202v176c0.6 4.6 5.2 14 8.4 17.2l286.6 220.598v-652zM672.6 359.6c0 13.6 11 24.6 24.6 24.6v0c17.6 0 33.4 7.2 45.2 18.602v0c11.6 11.598 18.6 27.398 18.6 45.2v0c0 17.6-7.2 33.4-18.6 45.2v0c-11.6 11.6-27.4 18.6-45.2 18.6v0c-13.6 0-24.6 11-24.6 24.6v0c0 13.6 11 24.6 24.6 24.6v0c62.4 0 112.798-50.6 113-113v0c0-62.4-50.6-112.8-113-113v0 0c-13.6 0.198-24.6 11.198-24.6 24.598v0zM674.2 151.602c0 13.6 11 24.6 24.6 24.6v0c75 0 142.8 30.4 192 79.6v0c49.202 49.202 79.6 117 79.6 192v0c0 75-30.4 142.8-79.6 192v0c-49.2 49.2-117 79.6-192 79.6v0c-13.6 0-24.6 11-24.6 24.6v0c0 13.6 11 24.6 24.6 24.6v0c177.202 0 320.6-143.6 320.6-320.6v0c0-177.2-143.6-320.6-320.6-320.6v0c-13.6-0.2-24.6 10.8-24.6 24.2v0zM672.6 258.202c0 13.6 11 24.6 24.6 24.6v0c45.798 0 86.798 18.4 116.798 48.4v0c30 30 48.4 71.2 48.4 116.798v0c0 45.8-18.4 86.8-48.4 116.8v0c-30 30-71.2 48.4-116.798 48.4v0c-13.6 0-24.6 11-24.6 24.6v0c0 13.6 11 24.6 24.6 24.6v0c118.4 0 214.4-96 214.4-214.4v0c0-118.4-96-214.4-214.4-214.4v0c-13.6 0-24.6 11-24.6 24.602v0z" />
<glyph unicode="&#xe60b;" d="M700.3 878.4c-4.796 0-10.398-2.2-16.398-6.8l-334.602-258c-8.796 14-24.6 26.4-52.796 26.4h-35.6c0 0-7.204 0-28.4 0-64 0-64-64-64-64v-256c0 0 0-64 64-64s0 0 64 0c28.2 0 44 12.4 52.796 26.4l334.602-258c6-4.6 11.6-6.8 16.398-6.8 9.204 0 15.204 8 15.204 22.4v816c-0.004 14.4-6.204 22.4-15.204 22.4zM299.3 316.204c-0.796 0-1.6-0.204-2.796-0.204h-64c-1.204 0-2.204 0-2.8 0.204-0.6 1.396-1 3.396-1.2 5v253.596c0.2 1.6 0.6 3.6 1.2 5 0.8 0 1.6 0.2 2.8 0.2h64c1.2 0 2.2 0 2.796-0.2 0.604-1.4 1-3.4 1.204-5v-38c0-0.2 0-0.6 0-0.8v-176c0-0.2 0-0.6 0-0.796v-38c-0.204-1.604-0.604-3.604-1.204-5zM655.5 122l-286.6 221c-3.204 3-8 12.6-8.4 17.204v176c0.6 4.6 5.2 14 8.4 17.2l286.6 220.596v-652z" />
<glyph unicode="&#xe60c;" d="M640.802 878.4c-4.8 0-10.398-2.2-16.398-6.8l-334.604-258c-8.798 14-24.6 26.4-52.798 26.4h-35.6c0 0-7.202 0-28.4 0-64 0-64-64-64-64v-256c0 0 0-64 64-64s0 0 64 0c28.2 0 44 12.4 52.798 26.4l334.602-258c6-4.6 11.598-6.8 16.398-6.8 9.2 0 15.2 8 15.2 22.4v816c0 14.4-6.198 22.4-15.198 22.4zM239.8 316.202c-0.798 0-1.6-0.202-2.798-0.202h-64c-1.202 0-2.202 0-2.8 0.202-0.6 1.398-1 3.398-1.2 5v253.598c0.2 1.6 0.6 3.6 1.2 5 0.8 0 1.6 0.2 2.8 0.2h64c1.2 0 2.2 0 2.798-0.2 0.602-1.4 1-3.4 1.202-5v-38c0-0.2 0-0.6 0-0.8v-176c0-0.2 0-0.6 0-0.798v-38c-0.202-1.602-0.6-3.602-1.202-5zM596 122l-286.598 221c-3.202 3-8 12.6-8.4 17.202v176c0.6 4.6 5.2 14 8.4 17.2l286.598 220.598v-652zM777.602 359.4c0 13.6 11 24.6 24.598 24.6v0c17.602 0 33.402 7.2 45.2 18.602v0c11.6 11.598 18.6 27.398 18.6 45.198v0c0 17.6-7.2 33.4-18.602 45.2v0c-11.598 11.6-27.398 18.6-45.2 18.6v0c-13.598 0-24.598 11-24.598 24.6v0c0 13.6 11 24.6 24.598 24.6v0c62.402 0 112.8-50.6 112.8-113v0c0-62.4-50.602-112.8-112.8-113v0 0c-13.596 0.2-24.596 11.2-24.596 24.6v0z" />
<glyph unicode="&#xe611;" d="M552.398 900.9c10.8 0 19.402-8.8 19.402-19.4v-58.6c0-10.8 8.598-20.8 19.2-22.4 0 0 104-16 142.8-33.6l-28.2-106.6c-2-7.6-8-12.2-15-12.2-2.402 0-5 0.6-7.602 1.8 0 0-62.398 30.4-142.2 30.4-72.2 0-95.402-32.2-95.402-63.2 0-35.6 38.8-60 134.202-94.4 132-46.6 184.2-107.598 184.2-208.598 0-98.8-68.8-183.204-196.402-204.204v-94.796c0-10.8-8.796-19.402-19.398-19.402h-70.8c-10.8 0-19.4 8.8-19.4 19.402v66.2c0 10.8-8.6 21-19.2 22.598 0 0-127.202 21.204-169.4 44.602l28.4 111c2 7.8 8.398 12.602 15.6 12.602 2.4 0 4.798-0.402 7.2-1.602 0 0 94.202-41 166.4-41 64.4 0 107.598 25.602 107.598 68.8 0 42.2-35.598 68.8-118.798 96.598-118.8 40-199.8 95.402-199.8 203 0 98.8 68.8 175.4 187.6 197.6v85.8c0 10.8 8.8 19.4 19.4 19.4h69.598M552.398 959.3h-69.798c-43 0-78-35-78-78v-40.6c-49.202-16-91-41.8-122.602-75.4-42.2-45.4-64.798-103.4-64.798-167.4 0-67.4 25-124.6 74.2-170 38.4-35.398 91-63.598 165.4-88.598v0 0c35.4-11.8 60-23 72.598-33 4.602-3.8 5.8-5.8 6-6.2 0.204-0.204 0.204-1 0.204-1.402-3.402-3-17.8-10.8-49.202-10.8-49.2 0-120 26.204-143 36.204-9.798 4.2-20 6.398-30.4 6.398-34 0-63.6-23.2-72.2-56.602l-28.4-110.796-11.2-43.8 39.6-22c22.8-12.602 60.8-24.602 116.2-37 15.602-3.402 30.4-6.402 42.4-8.8v-36.8c0-43 35-78 78-78h71c43 0 78 35 78 78v48.596c52.602 16 97 43.2 130.602 79.598 21.398 23.402 38 50 49.2 79.402 11 28.8 16.602 59.598 16.602 91.398 0 66-18.602 119.402-57 163.2-36.2 41.4-89 73.2-166 100.4-33.2 12-57.602 22.2-74.402 31-7 3.6-12 6.8-15.598 9.2 5.598 2 15.4 4 31.4 4 64.602 0 116.2-24.2 116.8-24.4 10.398-5 21.8-7.8 33.2-7.8 16.602 0 32.8 5.6 45.602 16 12.598 10 21.398 23.8 25.8 39.6l28.2 106.6 12.398 47.8-44.8 20.4c-31.796 14.6-90.796 26.6-127.796 33.2v28.4c-0.21 43.002-35.21 78.002-78.21 78.002v0z" />
<glyph unicode="&#xe612;" d="M542 920.3v-637h-60v637zM512 960.5c17.802 0 35.802-6.8 49.6-20.4v0l163.8-163.8-42.4-42.4-163.8 163.8c-2 2-4.398 2.8-7 2.8v0c-2.798 0-5.2-1-7-2.8v0l-163.798-163.8-42.6 42.4 163.798 163.8c13.598 13.6 31.598 20.4 49.4 20.4v0 0 0zM837 639.5h-179v-60h162.6v-584h-617.2v584h164.6v60h-181c-24 0-43.6-18-43.6-40v-624c0-22 19.6-40 43.6-40h650c24 0 43.6 18 43.6 40v624c0.2 22-19.6 40-43.6 40z" />
<glyph unicode="&#xe614;" d="M328.3 265.6v-50.4c0-22.798 18.4-41.2 41.202-41.2 22.798 0 41.2 18.4 41.2 41.2v50.4c14 11.8 22.8 29.4 22.8 49 0 35.4-28.6 64-64 64s-64-28.6-64-64c-0.002-19.6 8.798-37.2 22.798-49zM1007.5 546.6c0 0 0 106.6 0 169.4 0 21.2-5.8 43.2-16 65-15.4 32.6-41.4 64.8-77.8 89.2-36.4 24.6-83.6 40.8-138.8 40.8-73.798 0-132.798-28.6-172.398-66.8-19.8-19.2-35-40.6-45.4-62.4s-16.2-44-16.2-65.8v-155h-484.402c-22 0-40-18-40-40v-496c0-22 18-40 40-40h624c22 0 40 18 40 40v496c0 22-18 40-40 40h-79.6v155c0 10.4 3.2 24.8 10.398 39.8 10.8 22.8 30.202 46.8 57.6 64.8 27.4 18 62.202 30.4 106 30.4 58.202-0.2 100.602-22 129.8-50.4 14.6-14.2 25.4-30 32.6-45.2 7.202-15 10.202-29.4 10.202-39.4 0-62.6 0-169.4 0-169.4h60zM660.5 501v-456h-584v456h584z" />
<glyph unicode="&#xe617;" d="M173 408.202h-60c0-1.202 0-2.202 0-3.4 0-2 0-4.2 0-6.2 0-1.602 0.2-3.202 0.2-4.8s0.202-3.2 0.202-4.8c0-1.798 0.2-3.398 0.2-5.2 0-1.4 0.2-3 0.2-4.4 0.202-1.798 0.202-3.6 0.4-5.2 0.202-1.4 0.202-2.8 0.4-4.2 0.2-1.8 0.4-3.602 0.6-5.4 0.202-1.4 0.4-2.8 0.4-4 0.2-1.8 0.4-3.6 0.6-5.4 0.202-1.2 0.4-2.6 0.6-3.8 0.202-1.798 0.602-3.798 0.8-5.6 0.2-1.2 0.4-2.4 0.6-3.6 0.4-2 0.6-3.8 1-5.8 0.202-1 0.4-2 0.6-3 2-10.2 4.4-20.398 7-30.398 0.202-0.8 0.4-1.4 0.602-2.202 0.6-2 1.2-4.2 1.798-6.2 0.202-0.8 0.6-1.8 0.8-2.6 0.6-2 1.2-4 1.798-6 0.202-1 0.602-1.8 0.8-2.8 0.6-2 1.4-4 2-6 0.4-0.8 0.6-1.8 1-2.6 0.8-2 1.4-4 2.2-6 0.4-0.8 0.602-1.6 1-2.4 0.8-2 1.602-4 2.4-6.2 0.202-0.602 0.6-1.4 0.8-2 0.798-2.202 1.798-4.4 2.798-6.4 0.202-0.202 0.202-0.6 0.4-0.8 4.4-10.4 9.4-20.4 14.6-30.4 0-0.2 0.202-0.2 0.202-0.398 1.2-2.202 2.4-4.4 3.6-6.602 0.2-0.398 0.4-0.798 0.8-1.2 1.2-2 2.398-4.2 3.6-6.2 0.2-0.4 0.6-1 0.798-1.4 1.202-2 2.4-4 3.8-6 0.2-0.4 0.6-1 1-1.4 1.2-2 2.6-4 4-6.2 0.2-0.402 0.6-0.8 0.8-1.202 1.398-2.202 2.798-4.202 4.2-6.4 0.2-0.2 0.2-0.398 0.4-0.398 11.2-16.402 23.798-32 37.4-46.602l0.2-0.2c1.8-2 3.8-4 5.8-6l0.2-0.2c72.402-74.2 173.602-120.2 285.402-120.2 220.398-0.6 399 178 399 398.4s-178.602 399-399 399c-3.202 0-6.4 0-9.6-0.2-0.8 0-1.602 0-2.4 0-2.6 0-5.4-0.2-8-0.4-0.6 0-1.202 0-1.6 0-3.202-0.2-6.4-0.4-9.602-0.6-0.6 0-1 0-1.6-0.2-2.798-0.2-5.6-0.4-8.2-0.8-0.6 0-1.202-0.2-2-0.2-6.4-0.6-12.8-1.6-19.202-2.6-0.6 0-1-0.2-1.6-0.2-3-0.4-6-1-9-1.6-0.2 0-0.2 0-0.4 0-3.2-0.6-6.6-1.2-9.798-2-0.202 0-0.4-0.2-0.8-0.2-3-0.6-6-1.4-9-2-0.4 0-0.6-0.2-1-0.2-6.4-1.6-12.798-3.2-19-5-0.2 0-0.4-0.2-0.798-0.2-68.202-20.2-128.8-58.2-176.4-108.6v174c0 16.6-13.4 30-30 30s-30-13.4-30-30v-286h286c16.6 0 30 13.4 30 30s-13.4 30-30 30h-192.2c0.4 0.6 1 1.2 1.4 1.8 1.4 1.6 3 3.2 4.4 5 1.2 1.4 2.4 2.6 3.6 4 1.4 1.4 2.8 2.8 4.202 4.2 1.398 1.6 3 3 4.6 4.6 0.6 0.6 1 1 1.6 1.6 2 2 4.2 4 6.2 5.8 0.4 0.4 1 0.8 1.4 1.4 2.4 2.2 5 4.6 7.6 6.8 0.4 0.4 1 0.8 1.4 1.2 2 1.8 4.202 3.6 6.4 5.2 0.8 0.6 1.4 1.2 2.2 1.8 2.4 1.8 4.602 3.6 7 5.4 0.4 0.2 0.602 0.4 1 0.8 2.8 2 5.4 4 8.202 6 0.6 0.4 1.2 0.8 1.798 1.2 2.4 1.6 4.602 3.2 7 4.8 0.602 0.4 1.202 0.8 1.8 1.2 5.8 3.8 11.8 7.4 17.8 10.8 0.398 0.2 1 0.6 1.6 0.8 2.798 1.6 5.6 3.2 8.6 4.6 0.2 0.2 0.6 0.2 0.8 0.4 6.398 3.4 13 6.4 19.6 9.4 0.4 0.2 0.798 0.4 1.2 0.6 6.6 2.8 13.4 5.6 20.202 8 0.2 0 0.398 0.2 0.798 0.2 3.202 1.2 6.4 2.2 9.6 3.2 0.4 0.2 0.8 0.2 1.202 0.4 6.798 2.2 13.798 4.2 21 6 0.6 0.2 1.2 0.2 1.798 0.4 3 0.8 6.202 1.4 9.202 2.2 0.4 0.2 1 0.2 1.4 0.4 3.6 0.8 7.2 1.4 10.6 2 0.4 0 0.798 0.2 1.2 0.2 3 0.6 6.202 1 9.4 1.4 1 0.2 1.8 0.2 2.8 0.4 3 0.4 6 0.8 9 1.2 0.6 0 1 0.2 1.6 0.2 3.4 0.4 7 0.6 10.6 1 1 0 1.8 0.2 2.8 0.2 2.798 0.2 5.398 0.4 8.2 0.4 1 0 2 0 3.2 0.2 3.602 0.2 7.202 0.2 10.8 0.2 10 0 19.8-0.4 29.6-1.4 60-5.2 115.4-26 162.202-58.2 16.2-11.2 31.398-23.8 45.6-37.6 1.6-1.4 3-3 4.398-4.4 12.602-12.8 24-26.6 34.4-41.2 34.6-48.8 56.8-107 61.6-170.2 0.602-8.4 1-16.8 1-25.4 0-0.2 0-0.4 0-0.6 0-187.2-151.798-339-338.998-339-22.4 0-44.202 2.202-65.202 6.202-2 0.398-3.798 0.798-5.798 1.2-0.202 0-0.4 0.2-0.8 0.2-5.8 1.202-11.4 2.602-17.2 4.202-0.4 0.2-1 0.2-1.4 0.4-1.6 0.398-3.4 1-5 1.398-0.6 0.202-1.202 0.4-2 0.602-5.202 1.6-10.202 3.2-15.202 5-0.798 0.2-1.6 0.6-2.398 0.798-1.4 0.4-2.8 1-4.202 1.6-0.798 0.4-1.798 0.602-2.6 1-1.4 0.602-2.6 1-4 1.602-1 0.398-1.8 0.798-2.8 1.2-2.2 1-4.6 1.8-6.798 2.8-1 0.398-2 0.798-3 1.2-1.202 0.6-2.4 1.2-3.6 1.6-1 0.4-2 1-3 1.4-1.202 0.6-2.4 1.2-3.602 1.8-1 0.6-2 1-3.2 1.6-2 1-3.8 2-5.8 3-1 0.6-2.2 1.2-3.2 1.798-1.2 0.602-2.2 1.202-3.4 1.8-1 0.6-2 1-2.798 1.6-1.202 0.6-2.202 1.4-3.4 2-1 0.6-1.8 1.202-2.8 1.6-2 1.202-4 2.4-5.798 3.602-1 0.598-2 1.2-2.8 1.798-1.2 0.798-2.4 1.4-3.4 2.202-0.798 0.598-1.6 1.2-2.6 1.598-1.2 0.8-2.4 1.602-3.4 2.402-0.798 0.598-1.6 1.2-2.4 1.598-1.2 0.8-2.398 1.602-3.398 2.402-0.202 0-0.202 0.2-0.4 0.2-2.8 2-5.4 4-8 6-0.8 0.6-1.6 1.2-2.202 1.8-1.2 0.798-2.2 1.798-3.398 2.598-0.8 0.602-1.602 1.202-2.202 1.8-1 0.8-2.2 1.8-3.2 2.602-0.8 0.598-1.6 1.2-2.202 2-1.798 1.598-3.6 3-5.398 4.598-0.8 0.8-1.8 1.602-2.602 2.202-1 0.798-1.798 1.6-2.798 2.6-1 0.8-1.8 1.602-2.8 2.602-0.798 0.798-1.6 1.598-2.4 2.398-1.398 1.4-2.798 2.602-4 4-0.398 0.4-0.6 0.602-1 0.8-19.2 19.2-36 40.6-50.2 64-22.6 37.2-38.2 79.2-45.2 124.2-3.008 15.996-4.408 33.198-4.408 50.798z" />
<glyph unicode="&#xe619;" d="M512 782c21.6 0 43-1.4 64-4 21.8-2.8 43.2-6.8 64-12.2 22-5.6 43.4-12.8 64-21 19.2-7.8 38-16.8 56-26.8 2.6-1.4 5.4-3 8-4.4 22.4-13 43.8-27.6 64-43.8 6.4-5 12.6-10.4 18.6-15.6 16-14.2 31.2-29.4 45.4-45.4 22.4-25.4 42.4-53.2 59.4-82.6 1.6-2.6 3-5.2 4.6-8 10-18 19-36.8 26.8-56 8.4-20.8 15.4-42 21-64 5.4-20.8 9.4-42.2 12.2-64 2.6-21 2.8-24 2.8-24 0.6-22 1.2-40 1.2-40 0 0-3.2 32-7.2 43.4s-27 52.8-37.6 63-21.8 20.4-22.8 21c-1 0.8-28.4 16.4-39.8 20.4s-33.2 9.4-48.6 12.2c0 0 0 0-14.8 0-7.2 0-14.4-0.4-21.4-1.2-23-2.8-44.8-9.8-64-20.2-6.4-3.4-12.4-7.2-18.4-11.4-18.6-13.4-34.2-30.2-45.6-49.6-2.6-4.4-5-8.8-7.2-13.6-9.2-19.6-14.2-41.2-14.2-64 0 22.8-5 44.4-14.2 64-7.2 15.4-16.8 29.4-28.4 41.8-7.8 8.2-16.2 15.6-25.6 22.2-11.8 8.2-24.6 15.2-38.4 20.4-19.8 7.6-41.4 11.6-64 11.6-22.6 0-44.2-4.2-64-11.6-13.8-5.2-26.6-12.2-38.4-20.4-9.4-6.6-17.8-14-25.6-22.2-11.6-12.4-21.4-26.4-28.4-41.8-9.2-19.6-14.2-41.2-14.2-64 0 22.8-5 44.4-14.2 64-2.2 4.6-4.6 9.2-7.2 13.4-11.8 19.8-27.8 37-47 50.6-5.4 3.8-11.2 7.4-17 10.6-19.2 10.4-41 17.4-64 20.2-7 0.8-14.2 1.2-21.4 1.2-14.8 0-29-1.8-42.6-5-22-5.2-42.2-14.6-59.8-27-1.4-1-2.8-2-4.2-3-21.2-16.4-38.4-37.2-49.6-61.2-9.2-19.6-14.2-41.2-14.2-64 0 21.6 1.4 43 4 64 2.8 21.8 6.8 43.2 12.2 64 5.6 22 12.8 43.4 21 64 7.8 19.2 16.8 38 26.8 56 1.4 2.6 3 5.4 4.4 8 13 22.4 27.6 43.8 43.8 64 5 6.4 10.4 12.6 15.8 18.6 13.2 15 27.2 29 42 42.4 7.2 6.4 14.4 12.6 22 18.6 20.2 16.2 41.6 30.8 64 43.8 20.4 11.8 41.8 22.4 64 31.2 21 8.6 42.8 15.6 65 21.4 20.6 5.2 41.6 9.2 63 11.8 21 2.8 42.4 4.2 64 4.2M512 722c-19 0-38-1.2-56.6-3.6s-37.4-5.8-55.6-10.4c-19.4-5-38.8-11.4-57.4-18.8-19.4-7.8-38.4-17.2-56.4-27.6-19.6-11.4-38.8-24.4-56.6-38.6-6.6-5.2-13.2-10.8-19.4-16.6-13-11.6-25.6-24.2-37-37.4-4.8-5.4-9.4-11-13.8-16.4-14.2-17.8-27.2-36.8-38.6-56.6-1.4-2.4-2.6-4.6-4-7-1-2-2.2-3.8-3.2-5.8 0.2 0 0.4 0.2 0.6 0.2 18.4 4.4 37.6 6.8 56.8 6.8 9.4 0 19-0.6 28.4-1.6 30.2-3.6 59.2-12.6 85.6-27 8-4.2 15.6-9.2 23-14.2 12.2-8.6 23.4-18.4 33.6-29 10.2 10.6 21.6 20.4 33.8 29 16 11.2 33.4 20.4 51.6 27.4 27.2 10.4 55.8 15.6 85.2 15.6 29.4 0 58.2-5.2 85.2-15.6 18.4-7 35.8-16.2 51.6-27.4 12.2-8.6 23.6-18.4 33.6-29 9.6 10.2 20.4 19.4 32 27.8 7.8 5.6 16.2 10.8 24.6 15.4 26.6 14.4 55.4 23.4 85.6 27 9.4 1 18.8 1.6 28.4 1.6h14.6c3.6 0 7.2-0.4 10.6-1 10-1.8 21.8-4.4 32.6-7.2-1.2 2.4-2.6 4.8-3.8 7.2-1.4 2.4-2.6 4.8-4 7-15 26-32.6 50.4-52.6 73-12.4 14.2-26 27.6-40 40-5.4 4.8-10.8 9.4-16.4 13.8-17.8 14.2-36.8 27.2-56.6 38.6-2.4 1.4-4.6 2.6-7 4-16 8.8-32.6 16.8-49.4 23.6-18.4 7.4-37.4 13.6-56.4 18.6-18.4 4.8-37.4 8.4-56.4 10.8-18.2 2.2-37.2 3.4-56.2 3.4v0zM482 866v64c0 16.6 13.4 30 30 30v0c16.6 0 30-13.4 30-30v0-64c0-16.6-13.4-30-30-30v0c-16.6 0-30 13.4-30 30v0zM353.6-60.6c-17 3.4-39.6 10-61.8 24.2v0c-14.8 9.4-29.2 22.4-40.8 39.8v0c-15.6 23.2-25.2 53.6-25 90.6v0c0 16.6 13.4 30 30 30v0c16.6 0 30-13.4 30-30v0c0-26.2 6.2-43.4 14.2-56.2v0c8.2-12.6 19-21.4 31-27.8v0c22.8-12.4 49.6-14 52.8-14v0 0c0 0 0 0 0 0v0c0.2 0 0.4 0 0.8 0v0c0.8 0 2 0 3.8 0.2v0c3.4 0.2 8.4 0.8 14.4 2v0c12 2.4 27.4 7.2 40.8 15.8v0c9 5.8 16.8 13 23.4 22.6v0c8.4 12.8 14.8 30.2 15 57.4v0 226c0 16.6 13.4 30 30 30v0c16.6 0 30-13.4 30-30v0-226c0-37-9.6-67.6-25-90.6v0c-15.4-23.2-36-38.4-55.6-48.2v0c-39.2-19.4-75-19-77.4-19.2v0c-1.6 0-13.6 0-30.6 3.4v0zM384-4v0 0 0z" />
<glyph unicode="&#xe620;" d="M1008 456.9c5.398 0 10.798 0 16.398 0 0-6 0-11.8 0-17.8-1.798 9.6-7.598 15.2-16.398 17.8zM995.8 508.2l-135.4 135.4c-15.6 15.6-46.4 28.4-68.4 28.4h-176c-2.8 0-5.4-0.2-8-0.8v120.8c0 22-18 40-40 40h-528c-22 0-40-18-40-40v-560c0-22 18-40 40-40h33v0.2h55c0 0 0 0 0-0.2 0-70.6 57.4-128 128-128s128 57.4 128 128c0 0 0 0 0 0.2h74v-0.2h110c11.798 0 22.6 5.2 29.798 13.6 13-7.6 28.6-12.6 38.202-13.4h33c0 0 0 0 0-0.2 0-70.6 57.398-128 128-128 70.6 0 128 57.4 128 128 0 0 0 0 0 0.2h40v-0.2h19c0.798 0 1.6 0 2.398 0.2h4.602v0.6c18.6 3.4 33 19.8 33 39.4v207.8c0 22-12.8 52.8-28.2 68.2zM256 124c-37.4 0-68 30.6-68 68s30.6 68 68 68 68-30.6 68-68-30.6-68-68-68zM548 252h-179c-21.6 40.4-64 68-113 68s-91.6-27.6-113-68h-83v520h488v-520zM964 440v-12h-183c-2.8 0-5 1-7 3s-3 4.4-3 7v71.6c0 2.8 1 5.2 3 7 2 2 4.398 3 7 3l118 0.2 54.2-54.2c4.4-4.2 10.6-19.2 10.8-25.6zM797 124c-37.4 0-68 30.6-68 68s30.6 68 68 68c37.398 0 68-30.6 68-68s-30.602-68-68-68zM910 252c-21.602 40.4-64 68-113 68s-91.602-27.6-113-68h-48v360h156c6.398-0.2 21.398-6.4 25.798-10.8l21.202-21.2-58.202-0.2c-38.6-0.2-69.798-31.4-70-70v-71.6c0.202-38.6 31.4-69.798 70-70h184v-116.2h-54.798z" />
<glyph unicode="&#xe622;" d="M894.396 840.6h-224.998v89.6c0 7.8-3.202 15.6-8.8 21.2-5.6 5.6-13.2 8.8-21.2 8.8h-254.6c-7.798 0-15.6-3.2-21.2-8.8-5.6-5.6-8.8-13.2-8.8-21.2v-89.6h-225c-16.398 0-29.798-13.4-29.798-30 0-16.4 13.4-29.8 29.798-29.8h39.8l97.6-779.4c2.4-19 12-35 25-46.6 13-11.4 30.202-19 49.4-19h340.8c19.2 0 36.2 7.6 49.398 19 13 11.6 22.6 27.6 25 46.6l97.6 779.4h39.8c16.4 0 29.8 13.4 29.8 29.8 0.202 16.6-13.198 30-29.6 30zM414.6 900.2h195.198v-59.8h-195.198v59.8zM697.598 8.8c-0.2-2.8-2.2-6.4-5.4-9.202-3.2-2.798-7-4.2-9.798-4.2h-340.8c-2.8 0-6.6 1.4-9.8 4.2-3.2 2.8-5 6.4-5.398 9.202l-96.402 772h564.398l-96.8-772zM565.598 66v652c0 16.4 13.4 29.8 29.8 29.8v0c16.398 0 29.798-13.4 29.798-29.8v0-652c0-16.4-13.4-29.8-29.798-29.8v0c-16.4 0-29.8 13.4-29.8 29.8v0zM398.798 66v652c0 16.4 13.4 29.8 29.8 29.8v0c16.4 0 29.8-13.4 29.8-29.8v0-652c0-16.4-13.4-29.8-29.8-29.8v0c-16.4 0-29.8 13.4-29.8 29.8v0z" />
<glyph unicode="&#xe625;" d="M512 960c-282.8 0-512-229.2-512-512s229.2-512 512-512c282.798 0 512 229.2 512 512 0 282.8-229.2 512-512 512zM831.6 128.4c-41.6-41.6-89.8-74.2-143.6-96.8-55.8-23.6-115-35.6-176-35.6s-120.202 12-176 35.4c-53.8 22.8-102.2 55.4-143.6 96.8-41.6 41.8-74.2 90-97 143.8-23.4 55.8-35.4 115-35.4 176s12 120.2 35.4 176c22.8 53.8 55.4 102.2 96.8 143.6 41.8 41.6 90 74.2 143.8 97 55.8 23.4 115 35.4 176 35.4s120.2-12 176-35.4c53.798-22.8 102.2-55.4 143.6-96.8 41.6-41.6 74.2-89.8 96.798-143.6 23.6-55.6 35.4-114.8 35.4-176 0-61-12-120.2-35.4-176-22.598-54-55.198-102.2-96.798-143.8zM542 504.6v327.4c0 16.6-13.4 30-30 30s-30-13.4-30-30v-327.4c-20.202-10.8-34-32-34-56.6 0-6.6 1-12.8 2.798-18.8l-119-119c-11.798-11.8-11.798-30.8 0.002-42.4 5.8-5.8 13.602-8.8 21.202-8.8s15.4 3 21.2 8.8l119 119c6-1.8 12.202-2.8 18.8-2.8 35.4 0 64 28.6 64 64-0.002 24.6-13.802 45.8-34.002 56.6z" />
<glyph unicode="&#xe626;" d="M248.802 536.8l35 14.6c26.2 11 51.2 27.4 73.2 49.4v0c22.4 22.4 39.202 48 50.202 74.8v0l14.6 35.4 353.4-353.4-35.4-14.6c-26.8-11-52.4-27.6-74.8-50.2v0c-22-22-38.4-47-49.4-73.202v0l-14.6-35-352.202 352.202zM582.202 277c11.798 19.8 26.2 38.6 43.398 55.8v0c17.602 17.6 37 32.398 57.4 44.2v0l-242 241.8c-11.798-20.4-26.6-39.8-44.2-57.4v0c-17.2-17.2-36-31.6-55.8-43.4v0l241.202-241zM414 645.8v0zM947 287.2l-42.6-42.6c-56.8 56.8-145.8 60.202-198.4 7.6-52.798-52.798-49.4-141.6 7.6-198.398l-42.6-42.602-596 595.8 42.602 42.6c56.798-56.8 145.798-60.2 198.398-7.6 52.8 52.8 49.4 141.6-7.6 198.4l42.6 42.6 596-595.8M1024 284.4l-40 39.8-635.798 635.8-116.6-116.6 40-40c34.798-34.8 36.798-89.4 4.6-121.6-32.202-32.2-86.8-30.2-121.6 4.6l-40 39.8-116.4-116.4 675.798-675.8 116.6 116.6-40 40c-34.798 34.8-36.798 89.4-4.6 121.6 32.202 32.202 86.8 30.202 121.6-4.6l40-40 79.6 79.6 36.8 37.2z" />
<glyph unicode="&#xe627;" d="M886 302.6c6.2 6.4 13.8 15.4 19.602 27.602 5.2 10.798 8.598 24 8.598 38.6 0 20.8-8 38.2-17.2 50.8-9.402 12.598-20 21.398-27.8 27.398-0.2 0.2-0.398 0.2-0.398 0.4 0.2 0.8 0.398 1.6 0.398 2.4 1.8 9 3.602 21 3.602 34 0 10.4-2.602 20.4-7 30.6-4.602 10.2-11.204 20.4-20.602 29.8-18.8 18.8-48.598 32.4-86.398 32.2-30.402 0-68.402-5-104.602-10.2-36-5.4-69.8-11.2-87.398-13.4-4.8-0.6-8.602-0.8-8.8-0.8-2-0.2-7.2 1.6-11 5.2-3.8 3.6-5.602 7.8-5.602 11.8 0 18.8 6.204 37.8 16.204 59.6 9.796 21.8 23 45.6 32.398 73.6 6.398 18.8 10.8 39.6 10.8 62.4 0 23.4-6.402 45.4-17 64-10.602 18.6-25.402 34.4-44 44.8-12.402 6.6-26.602 11-41.8 11h-0.202c-9.2 0-18.4-1.8-26.4-5.2-8.2-3.4-15-8.6-20.398-14.2-10.8-11.4-15.602-24.2-18.202-35.2-1.6-7.4-2.4-14.2-2.4-20.4 0-34.2-13.398-65-35.2-94.8s-51.6-57.2-80.2-82.6c-19.202-16.8-37.8-32.6-53.602-48.4-20.398-20.4-32-43.2-41.398-63-9.4-20-17.202-37.2-26.4-49.4-6.202-8.2-13-14.4-22.4-19.6-12.4-6.8-31.2-12-61.4-12v-60c31.4 0 57.202 4.598 78.8 13.798s38.2 23 50.2 38.202c8 10 14.4 20.598 19.8 30.798 7.2 13.6 12.798 26.8 18.798 38.8 7.8 16 15.8 29.4 26.8 40.4 19.8 19.8 50.4 44.4 81.2 73.2 30.602 29 61.8 62.4 82.8 103.4 13.8 27.2 23 58 23 91.8 0 2.6 0.6 7.4 1.8 10.4 1.2 3.2 2.398 4 2.398 4 0.202 0 0.4 0.4 3.202 0.4 3.6 0 7.6-1 12.4-3.6 4.8-2.6 9.8-6.8 14.398-12.6 9.204-11.2 15.602-27.6 15.602-43.8 0-22.2-6.602-42.8-16.2-65-9.602-22.2-22.6-45.2-32.2-71.8-6.4-17.8-11-37.4-11-58.8 0-22.6 10.2-42 24-55.2 14-13.2 32-21.8 52.4-21.8 5.398 0 10.2 0.6 16.2 1.2 6 0.8 12.8 1.8 20.402 2.8 15.398 2.4 33.796 5.4 53.598 8.4 39.2 6 83.398 12 110.8 11.8 17 0 28.2-4 35.8-8.6 7.796-4.6 12.598-10.4 15.398-15.8 1.8-3.4 2.602-6.6 2.8-7.8 0-0.4 0-0.4 0-0.4 0.2-14-4.402-32.2-4.8-33.2l-1.2-4v-4.202c0 0 0 0 0-6.6 0-7.2 2.2-12.2 4-15.4s3.398-5.202 4.8-6.798c2.796-3 4.796-4.602 6.796-6.202 3.8-3 7.402-5.6 11-8.4 7.204-5.6 14.204-12.2 17.602-18.398 2.398-4 3.398-7.402 3.398-11.8-0.2-7.6-1.796-11.6-4.598-16.202-2.8-4.6-7.2-9-12.602-14.2-3.598-3.8-8-7.4-13-15.2-2.8-4.4-5.8-11.4-6-20.4 0-7.6 2.2-12.8 4-16.4s3.602-6.2 5.402-8.4c3.398-4.202 6.2-7.4 9.2-10.4 5.598-6 10.398-12 12.8-16.8 1.598-3.2 2.2-5.798 2.2-8.398 0-1.4-0.2-2.4-1-4.2-0.8-1.8-2.402-4.402-5-7.202-5-5.798-13.602-12.4-22.2-19.6-5.8-5-12-9.8-18.204-18.8-3.398-5.2-7.398-12.8-7.398-23.2 0-6.602 1.8-13 3.602-17 1.796-4.2 3.2-6.4 4-7.8 1.598-3 2.2-3.6 3.398-9.2 0.8-3.602 1.398-9 1.398-17 0-3.602-0.398-6-1.2-7.8-0.598-1.8-1.598-3.398-3.598-5.6-3.8-4.4-14.402-11.4-36.204-17.4-14.398-4-33.598-7.6-57.996-10.398-32.592-3.598-74.392-5.598-127.194-5.598-98.598 0-166.798 10.4-220.398 23.2-53.602 12.8-92.8 28.402-134.8 39.8-27.8 7.602-57 12.8-90 12.8-8.4 0-17.2-0.4-26.2-1v-60.2c9.2 0.798 18 1.2 26.2 1.2 26.6 0 49.6-4.2 74.4-10.8 24.798-6.6 51.4-16 83.6-25.798 64.6-19.6 150.2-39.202 287.198-39.202 71.402 0 124.602 3.602 165 10.202 40.2 6.798 68.402 16.4 89.402 32.4 13.796 10.398 23.796 24.798 28.2 39.798 2.598 8.4 3.398 16.798 3.398 24.6 0 17.2-2.2 30.2-5.598 40.4-0.8 2.4-1.602 4.6-2.602 6.6 0.602 0.4 1.2 1 1.8 1.4 9 7.6 22.8 17.6 34.2 33.6 7.402 10.602 13.8 25.2 13.8 42s-5.602 31.2-12 41.8c-4.998 7.2-9.798 13.2-13.998 18.2z" />
<glyph unicode="&#xe628;" d="M886 302.7c6.2 6.4 13.8 15.4 19.602 27.602 5.2 10.798 8.598 24 8.598 38.6 0 20.798-8 38.2-17.2 50.798-9.402 12.602-20 21.4-27.8 27.4-0.2 0.2-0.398 0.2-0.398 0.4 0.2 0.8 0.398 1.6 0.398 2.4 1.8 9 3.602 21 3.602 34 0 10.4-2.602 20.4-7 30.6-4.602 10.2-11.204 20.4-20.602 29.8-18.8 18.8-48.598 32.4-86.398 32.2-30.402 0-68.402-5-104.602-10.2-36-5.4-69.8-11.2-87.398-13.4-4.8-0.6-8.602-0.8-8.8-0.8-2-0.2-7.2 1.6-11 5.2-3.8 3.6-5.602 7.8-5.602 11.8 0 18.8 6.204 37.8 16.204 59.6 9.796 21.8 23 45.6 32.398 73.6 6.398 18.8 10.8 39.6 10.8 62.4 0 23.4-6.402 45.4-17 64-10.602 18.6-25.402 34.4-44 44.8-12.402 6.6-26.602 11-41.8 11h-0.202c-9.2 0-18.4-1.8-26.4-5.2-8.2-3.4-15-8.6-20.398-14.2-10.8-11.4-15.602-24.2-18.202-35.2-1.6-7.4-2.4-14.2-2.4-20.4 0-34.2-13.398-65-35.2-94.8s-51.6-57.2-80.2-82.6c-19.202-16.8-37.8-32.6-53.602-48.4-20.398-20.4-32-43.2-41.398-63-9.4-20-17.202-37.2-26.4-49.4-6.202-8.2-13-14.4-22.4-19.6-12.4-6.8-31.2-12-61.4-12v-60l2.8-233.398v-60.202c9.2 0.8 18 1.202 26.2 1.202 26.6 0 49.6-4.202 74.4-10.8s51.4-16 83.6-25.8c64.6-19.6 150.202-39.2 287.2-39.2 71.398 0 124.602 3.6 165 10.2 40.2 6.8 68.398 16.4 89.398 32.4 13.8 10.4 23.8 24.8 28.204 39.8 2.598 8.4 3.398 16.798 3.398 24.6 0 17.2-2.2 30.2-5.602 40.4-0.796 2.4-1.598 4.6-2.598 6.6 0.598 0.4 1.2 1 1.8 1.4 9 7.6 22.796 17.6 34.2 33.6 7.398 10.6 13.8 25.2 13.8 42s-5.602 31.2-12 41.8c-4.6 7.398-9.4 13.398-13.6 18.398z" />
<glyph unicode="&#xe629;" d="M473.1 16.798c-8.2 3.4-15 8.602-20.398 14.202v0c-10.8 11.4-15.602 24.2-18.202 35.2v0c-1.6 7.4-2.4 14.202-2.4 20.4v0c0 34.2-13.398 65-35.2 94.8v0c-21.8 29.798-51.6 57.2-80.2 82.398v0c-19.202 16.8-37.8 32.602-53.602 48.4v0c-20.398 20.4-32 43.202-41.398 63v0c-9.4 20-17.202 37.2-26.4 49.4v0c-6.202 8.202-13 14.4-22.4 19.6v0c-12.4 6.8-31.2 12-61.4 12v0 60c31.4 0 57.202-4.6 78.8-13.8v0c21.6-9.2 38.2-23 50.2-38.2v0c8-10 14.4-20.6 19.8-30.8v0c7.2-13.598 12.798-26.798 18.798-38.798v0c7.8-16 15.8-29.4 26.8-40.4v0c19.8-19.798 50.4-44.4 81.2-73.2v0c30.602-29 61.8-62.4 82.8-103.4v0c13.8-27.2 23-58 23-91.8v0c0-2.6 0.6-7.398 1.8-10.398v0c1.2-3.202 2.398-4 2.398-4v0c0.202 0 0.4-0.4 3.202-0.4v0c3.6 0 7.6 1 12.4 3.6v0c4.798 2.6 9.798 6.8 14.398 12.6v0c9.202 11.202 15.602 27.6 15.602 43.8v0c0 22.2-6.602 42.798-16.202 65v0c-9.6 22.2-22.6 45.2-32.2 71.798v0c-6.4 17.8-11 37.4-11 58.8v0c0 22.6 10.2 42 24 55.202v0c14 13.2 32 21.798 52.4 21.798v0c5.398 0 10.2-0.6 16.2-1.202v0c6-0.798 12.8-1.798 20.4-2.798v0c15.4-2.4 33.798-5.4 53.6-8.4v0c39.2-6 83.398-12 110.798-11.8v0c17 0 28.202 4 35.8 8.602v0c7.798 4.6 12.6 10.398 15.4 15.8v0c1.798 3.398 2.6 6.598 2.798 7.798v0c0 0.4 0 0.4 0 0.4v0c0.202 14-4.4 32.2-4.798 33.2v0l-1.202 4v4.2c0 0 0 0 0 6.6v0c0 7.2 2.202 12.2 4 15.4v0c1.8 3.2 3.4 5.2 4.8 6.8v0c2.798 3 4.798 4.6 6.798 6.2v0c3.8 3 7.4 5.6 11 8.4v0c7.202 5.6 14.202 12.2 17.602 18.4v0c2.398 4 3.398 7.4 3.398 11.8v0c-0.2 7.6-1.798 11.6-4.6 16.2v0c-2.798 4.6-7.2 9-12.6 14.2v0c-3.6 3.8-8 7.4-13 15.2v0c-2.8 4.4-5.8 11.4-6 20.4v0c0 7.6 2.2 12.8 4 16.4v0c1.8 3.6 3.6 6.2 5.4 8.4v0c3.4 4.2 6.2 7.4 9.2 10.4v0c5.6 6 10.4 12 12.8 16.8v0c1.6 3.2 2.2 5.8 2.2 8.4v0c0 1.4-0.2 2.4-1 4.2v0c-0.798 1.8-2.4 4.4-5 7.2v0c-5 5.8-13.6 12.4-22.2 19.6v0c-5.8 5-12 9.8-18.202 18.8v0c-3.398 5.2-7.398 12.8-7.398 23.2v0c0 6.6 1.798 13 3.6 17v0c1.798 4.2 3.2 6.4 4 7.8v0c1.6 3 2.2 3.6 3.4 9.2v0c0.798 3.6 1.398 9 1.398 17v0c0 3.6-0.398 6-1.2 7.8v0c-0.6 1.8-1.6 3.4-3.6 5.6v0c-3.8 4.4-14.4 11.4-36.202 17.4v0c-14.398 4-33.6 7.6-57.998 10.4v0c-33 4-74.8 6-127.8 6v0c-98.6 0-166.798-10.4-220.4-23.2v0c-53.6-12.8-92.798-28.4-134.798-39.8v0c-27.8-7.6-57-12.8-90-12.8v0c-10.202 0-20.8 0.6-32 1.6v0l5.798 59.8c9.202-0.8 18-1.2 26.202-1.2v0c26.6 0 49.6 4.2 74.4 10.8v0c24.798 6.6 51.398 16 83.6 25.8v0c64.6 19.4 150.4 39 287.2 39v0c71.4 0 124.6-3.6 165-10.2v0c40.2-6.8 68.4-16.4 89.4-32.4v0c13.798-10.4 23.798-24.8 28.2-39.8v0c2.6-8.4 3.4-16.8 3.4-24.6v0c0-17.2-2.2-30.2-5.6-40.4v0c-0.8-2.4-1.6-4.6-2.6-6.6v0c0.6-0.4 1.2-1 1.798-1.4v0c9-7.6 22.8-17.6 34.202-33.6v0c7.398-10.6 13.798-25.2 13.798-42v0c0-16.8-5.6-31.2-12-41.8v0c-4.4-7.4-9.2-13.4-13.6-18.4v0c6.2-6.4 13.8-15.4 19.6-27.6v0c5.202-10.8 8.6-24 8.6-38.6v0c0-20.8-8-38.2-17.2-50.8v0c-9.4-12.6-20-21.4-27.8-27.4v0c-0.2-0.2-0.398-0.2-0.398-0.4v0c0.2-0.8 0.398-1.6 0.398-2.4v0c1.8-9 3.602-21 3.602-34v0c0-10.398-2.602-20.398-7-30.6v0c-4.602-10.2-11.202-20.4-20.602-29.8v0c-18.798-18.798-48.6-32.398-86.398-32.2v0c-30.4 0-68.4 5-104.6 10.2v0c-36 5.4-69.8 11.202-87.4 13.4v0c-4.8 0.6-8.6 0.8-9 0.8v0c-2 0.2-7.202-1.6-11-5.202v0c-3.8-3.6-5.6-7.798-5.6-11.798v0c0-18.8 6.2-37.8 16.2-59.6v0c9.8-21.8 23-45.602 32.4-73.602v0c6.4-18.798 10.798-39.6 10.798-62.398v0c0-23.4-6.398-45.4-17-64v0c-10.6-18.602-25.398-34.4-44-44.8v0c-12.2-6.8-26.398-11.2-41.6-11.2v0h-0.2c-8.986 0.2-17.986 2-26.188 5.398v0z" />
<glyph unicode="&#xe62a;" d="M885.898 593.4c6.202-6.4 13.8-15.4 19.602-27.6 5.2-10.8 8.6-24 8.6-38.6 0-20.8-8-38.2-17.202-50.8-9.4-12.6-20-21.4-27.798-27.4-0.202-0.2-0.4-0.2-0.4-0.4 0.2-0.8 0.4-1.6 0.4-2.4 1.798-9 3.6-21 3.6-34 0-10.398-2.6-20.398-7-30.6-4.6-10.2-11.202-20.4-20.6-29.8-18.8-18.798-48.6-32.398-86.4-32.2-30.4 0-68.4 5-104.6 10.2-36 5.4-69.8 11.202-87.4 13.4-4.798 0.6-8.6 0.8-8.798 0.8-2 0.2-7.202-1.6-11-5.202-3.8-3.6-5.602-7.798-5.602-11.798 0-18.8 6.202-37.8 16.202-59.6 9.798-21.8 23-45.602 32.4-73.602 6.398-18.798 10.798-39.6 10.798-62.398 0-23.4-6.4-45.4-17-64-10.6-18.602-25.4-34.4-44-44.8-12.2-6.8-26.4-11.2-41.6-11.2h-0.2c-9.202 0-18.4 1.798-26.4 5.2-8.202 3.4-15 8.6-20.4 14.2-10.8 11.4-15.6 24.202-18.2 35.202-1.602 7.4-2.4 14.2-2.4 20.4 0 34.2-13.4 65-35.202 94.798-21.798 29.8-51.6 57.202-80.2 82.6-19.2 16.8-37.8 32.602-53.6 48.4-20.4 20.4-32 43.202-41.4 63-9.4 20-17.2 37.2-26.4 49.4-6.2 8.202-13 14.4-22.4 19.6-12.398 6.8-31.2 12-61.398 12v60l2.4 233.8v60.2c9.202-0.8 18-1.2 26.202-1.2 26.6 0 49.6 4.2 74.4 10.8 24.798 6.6 51.398 16 83.6 25.8 64.6 19.4 150.4 39 287.4 39 71.398 0 124.6-3.6 164.998-10.2 40.202-6.8 68.4-16.4 89.4-32.4 13.8-10.4 23.8-24.8 28.202-39.8 2.6-8.4 3.398-16.8 3.398-24.6 0-17.2-2.2-30.2-5.6-40.4-0.798-2.4-1.6-4.6-2.6-6.6 0.6-0.4 1.2-1 1.8-1.4 9-7.6 22.798-17.6 34.2-33.6 7.4-10.6 13.8-25.2 13.8-42s-5.602-31.2-12-41.8c-4.602-7.4-9.4-13.4-13.602-18.4z" />
<glyph unicode="&#xe62c;" d="M167.024 816.98c20.99 0 38.164-17.174 38.164-38.164v-79.19c0-20.99-17.174-38.164-38.164-38.164h-106.86c-20.99-0.002-38.164 17.172-38.164 38.162v79.192c0 20.99 17.174 38.164 38.164 38.164h106.86M147.942 759.734h-68.696v-41.026h68.696v41.026zM960.836 816.98c20.99 0 38.164-17.174 38.164-38.164v-79.19c0-20.99-17.174-38.164-38.164-38.164h-641.156c-20.99 0-38.164 17.174-38.164 38.164v79.19c0 20.99 17.174 38.164 38.164 38.164h641.156M941.754 759.734h-602.992v-41.026h602.992v41.026zM167.024 530.75c20.99 0 38.164-17.174 38.164-38.164v-79.19c0-20.99-17.174-38.164-38.164-38.164h-106.86c-20.99 0-38.164 17.174-38.164 38.164v79.19c0 20.99 17.174 38.164 38.164 38.164h106.86M147.942 473.502h-68.696v-41.026h68.696v41.026zM960.836 530.75c20.99 0 38.164-17.174 38.164-38.164v-79.19c0-20.99-17.174-38.164-38.164-38.164h-641.156c-20.99 0-38.164 17.174-38.164 38.164v79.19c0 20.99 17.174 38.164 38.164 38.164h641.156M941.754 473.502h-602.992v-41.026h602.992v41.026zM167.024 244.52c20.99 0 38.164-17.176 38.164-38.164v-79.192c0-20.99-17.174-38.164-38.164-38.164h-106.86c-20.99 0-38.164 17.174-38.164 38.164v79.192c0 20.988 17.174 38.164 38.164 38.164h106.86M147.942 187.274h-68.696v-41.028h68.696v41.028zM960.836 244.52c20.99 0 38.164-17.176 38.164-38.164v-79.192c0-20.99-17.174-38.164-38.164-38.164h-641.156c-20.99 0-38.164 17.174-38.164 38.164v79.192c0 20.988 17.174 38.164 38.164 38.164h641.156M941.754 187.274h-602.992v-41.028h602.992v41.028z" />
<glyph unicode="&#xe62d;" d="M413.312 865c20.454 0 37.188-16.734 37.188-37.188v-282.624c0-20.454-16.734-37.188-37.188-37.188h-342.124c-20.454 0-37.188 16.734-37.188 37.188v282.624c0 20.454 16.734 37.188 37.188 37.188h342.124M394.72 809.218h-304.938v-245.438h304.938v245.438zM948.812 865c20.454 0 37.188-16.734 37.188-37.188v-282.624c0-20.454-16.734-37.188-37.188-37.188h-342.124c-20.454 0-37.188 16.734-37.188 37.188v282.624c0 20.454 16.734 37.188 37.188 37.188h342.124M930.22 809.218h-304.938v-245.438h304.938v245.438zM413.312 389c20.454 0 37.188-16.734 37.188-37.188v-282.624c0-20.454-16.734-37.188-37.188-37.188h-342.124c-20.454 0-37.188 16.734-37.188 37.188v282.624c0 20.454 16.734 37.188 37.188 37.188h342.124M394.72 333.218h-304.938v-245.438h304.938v245.438zM948.812 389c20.454 0 37.188-16.734 37.188-37.188v-282.624c0-20.454-16.734-37.188-37.188-37.188h-342.124c-20.454 0-37.188 16.734-37.188 37.188v282.624c0 20.454 16.734 37.188 37.188 37.188h342.124M930.22 333.218h-304.938v-245.438h304.938v245.438z" />
<glyph unicode="&#xe631;" d="M842.324 859h-660.648c-44.096 0-80.176-36.080-80.176-80.176v-44.898c0-44.096 36.080-80.176 80.176-80.176h660.648c44.098 0 80.176 36.080 80.176 80.176v44.898c0 44.096-36.078 80.176-80.176 80.176zM874.396 733.926c0-17.318-14.752-32.070-32.070-32.070h-125.876v109.040h125.876c17.318 0 32.070-14.752 32.070-32.070v-44.9zM842.324 551.124h-660.648c-44.096 0-80.176-36.078-80.176-80.176v-44.898c0-44.098 36.080-80.176 80.176-80.176h660.648c44.098 0 80.176 36.078 80.176 80.176v44.898c0 44.098-36.078 80.176-80.176 80.176zM874.396 426.050c0-17.318-14.752-32.070-32.070-32.070h-537.98v109.040h537.98c17.318 0 32.070-14.752 32.070-32.070v-44.9zM842.324 243.25h-660.648c-44.096 0-80.176-36.078-80.176-80.176v-44.898c0-44.098 36.080-80.176 80.176-80.176h660.648c44.098 0 80.176 36.078 80.176 80.176v44.898c0 44.098-36.078 80.176-80.176 80.176zM874.396 118.176c0-17.318-14.752-32.070-32.070-32.070h-331.128v109.040h331.126c17.318 0 32.070-14.752 32.070-32.070v-44.9z" />
<glyph unicode="&#xe633;" d="M317.71-13.482l-276.346 322.61c-13.772 15.892-20.128 35.846-20.128 55.27v0c0 21.718 7.946 43.614 24.542 60.212v0l386.004 386.004c14.126 13.95 32.314 24.722 51.562 32.844v0c19.422 7.946 39.73 13.244 59.684 13.244v0h296.474c44.498-0.176 80.522-36.2 80.698-80.698v0-238.558c-0.176-19.954-5.296-40.26-13.244-59.684v0c-8.122-19.424-18.716-37.434-32.842-51.56v0l-443.922-443.922c-14.832-15.010-34.61-22.778-54.21-22.778v0h-0.176c-21.542 0-43.086 9.536-58.096 27.016v0zM503.65 794.544c-14.306-5.828-27.55-14.302-34.434-21.366v0l-386.002-386.002c-5.65-5.648-9.004-14.124-9.004-22.776v0c0-7.772 2.648-15.19 7.24-20.66v0l276.524-322.436c5.296-6.004 11.478-8.478 18.008-8.652v0c5.83 0 11.658 2.12 16.776 7.238v0l443.92 443.922c7.062 6.886 15.54 20.128 21.366 34.432v0c6.004 14.126 9.36 29.49 9.182 39.376v0 238.384c0 7.594-3.002 14.48-8.124 19.6v0c-5.12 5.122-12.008 8.124-19.602 8.124v0h-296.472c-0.18 0-0.356 0-0.356 0v0c-9.886 0-25.074-3.354-39.022-9.184v0zM636.79 665.112c0 48.736 39.554 88.29 88.29 88.29v0c48.736 0 88.292-39.554 88.292-88.29v0c0-48.736-39.554-88.29-88.292-88.29v0c-48.914 0.002-88.29 39.554-88.29 88.29v0zM689.764 665.112c0-19.424 15.892-35.316 35.314-35.316v0c19.424 0 35.316 15.892 35.316 35.316v0c0 19.424-15.892 35.316-35.316 35.316v0c-19.598 0-35.314-15.892-35.314-35.316v0z" />
<glyph unicode="&#xe634;" d="M944 832h-864c-44 0-80-36-80-80v-608c0-44 36-80 80-80h864c44 0 80 36 80 80v608c0 44-36 80-80 80zM964 144c0-10.8-9.202-20-20-20h-864c-10.8 0-20 9.2-20 20v608c0 10.8 9.2 20 20 20h864c10.798 0 20-9.2 20-20v-608zM826.8 725h-629.6c-32 0-58.2-29.2-58.2-65v-424c0-35.8 26.2-65 58.2-65h629.4c32 0 58.2 29.2 58.2 65v424c0.2 35.8-26 65-58 65zM849 236c0-15.6-10.202-29-22.202-29h-629.598c-12 0-22.2 13.2-22.2 29v424c0 15.6 10.2 29 22.2 29h629.4c12 0 22.2-13.2 22.2-29l0.2-424zM99 472c-13.202 0-24-10.8-24-24s10.798-24 24-24c13.2 0 24 10.8 24 24 0 13.2-10.8 24-24 24z" />
<glyph unicode="&#xe637;" d="M512 670c-122.6 0-222-99.4-222-222s99.4-222 222-222 222 99.4 222 222-99.4 222-222 222zM626.6 333.4c-29.4-29.4-69.8-47.4-114.6-47.4-44.8 0-85.202 18-114.6 47.4-29.4 29.4-47.4 69.8-47.4 114.6 0 44.8 18 85.2 47.4 114.6 29.4 29.4 69.8 47.4 114.6 47.4 44.798 0 85.2-18 114.6-47.4 29.4-29.4 47.4-69.8 47.4-114.6 0-44.8-18-85.2-47.4-114.6zM512 707c16.6 0 30 13.4 30 30v124c0 16.6-13.4 30-30 30s-30-13.4-30-30v-124c0-16.6 13.4-30 30-30zM716.398 622.4c7.602 0 15.4 3 21.202 8.8l87.6 87.6c11.8 11.8 11.8 30.8 0 42.4-11.8 11.8-30.8 11.8-42.4 0l-87.6-87.6c-11.8-11.8-11.8-30.8 0-42.4 5.8-6 13.4-8.8 21.198-8.8zM925 478h-124c-16.602 0-30-13.4-30-30s13.398-30 30-30h124c16.6 0 30 13.4 30 30s-13.4 30-30 30zM737.6 264.8c-11.8 11.798-30.8 11.798-42.4 0-11.8-11.8-11.8-30.8 0-42.4l87.6-87.6c5.8-5.8 13.6-8.8 21.2-8.8 7.602 0 15.4 3 21.202 8.8 11.798 11.798 11.798 30.798 0 42.398l-87.602 87.602zM512 189c-16.6 0-30-13.4-30-30v-124c0-16.6 13.4-30 30-30s30 13.4 30 30v124c0 16.6-13.4 30-30 30zM286.4 264.8l-87.6-87.6c-11.8-11.8-11.8-30.8 0-42.4 5.8-5.8 13.602-8.8 21.202-8.8s15.4 3 21.2 8.8l87.6 87.6c11.8 11.798 11.8 30.798 0 42.4-11.602 11.8-30.602 11.8-42.402 0zM253 448c0 16.6-13.4 30-30 30h-124c-16.6 0-30-13.4-30-30s13.4-30 30-30h124c16.6 0 30 13.4 30 30zM286.4 631.2c5.798-5.8 13.6-8.8 21.2-8.8s15.4 3 21.2 8.8c11.8 11.8 11.8 30.8 0 42.4l-87.6 87.6c-11.798 11.8-30.798 11.8-42.4 0-11.798-11.8-11.798-30.8 0-42.4l87.6-87.6z" />
<glyph unicode="&#xe638;" d="M983.8 769.4h-250v56.2c-0.2 38.8-31.2 70-70 70.202h-303.8c-38.6-0.202-69.8-31.402-70-70.202v-56.2h-250c-22 0-40-18-40-40v-689.2c0-22 18-40 40-40h943.8c22 0 40 18 40 40v689c0 22.2-18 40.2-40 40.2zM350 825.4c0 2.798 1 5 3 7s4.4 3 7 3h304c2.798 0 5-1 7-3s3-4.4 3-7v-56.2h-324v56.2zM963.8 60h-903.8v342.8c33.4-18.202 68.2-18.202 68.2-18.202h769.4c0 0 33.6 0 66.2 17.6v-342.198zM963.8 532v0l-0.2-19c0-37-14.8-50.2-27.8-57.4-17.4-9.6-36.798-10.6-38.798-10.798h-768.802c-0.2 0-19.6 0.798-37.2 9.6-15.202 7.6-30.8 20.6-30.8 58.4v19h-0.2v177.398h903.8v-177.2zM513 513c35.4 0 64.2 28.8 64.2 64.2s-28.798 64.202-64.2 64.202-64.2-28.802-64.2-64.202c0-35.6 28.8-64.2 64.2-64.2z" />
<glyph unicode="&#xe639;" d="M941.8 392.8c-13.4-6.202-28.4-10.2-44.2-10.2h-767.6c-16 0-31.202 3.798-45.202 9.798s-26.798 14.202-38.998 23.402c-16.8 13-32 28.2-45.8 44v-419.8c0-22 18-40 40-40h943.8c22 0 40 18 40 40v424.6c-6.6-8.6-13.6-17-21-25-17.6-18.8-37.2-36-61-46.8zM983.8 769.6h-250v56.2c-0.2 38.798-31.2 70-70 70.2h-303.8c-38.6-0.2-69.8-31.4-70-70.2v-56.2h-250c-22 0-40-18-40-40v-169.2c0.4-0.6 0.798-1.2 1.2-1.8 15.6-24 37.4-54 61-77.2 15.6-15.6 32.202-27.8 46.202-33.8 8.2-3.398 15.2-5 21.6-5h767.6c5.6 0 11.6 1.4 18.798 4.4 7 3 14.8 8 22.6 14.4 15.8 12.8 32 31.6 46 51.2 16.602 23.202 30.202 47.202 39 64v152.8c-0.2 22.2-18.2 40.2-40.2 40.2zM513 513.202c-35.4 0-64.202 28.798-64.202 64.2s28.8 64.2 64.202 64.2 64.2-28.798 64.2-64.2c-0.2-35.602-28.8-64.2-64.2-64.2zM673.8 769.6h-323.8v56c0 2.8 1 5 3 7s4.4 3 7 3h304c2.798 0 5-1 7-3s3-4.398 3-7v-56h-0.2z" />
<glyph unicode="&#xe642;" d="M972.158 571.536c-6.3 8.338-13.896 11.674-20.012 13.712-6.3 1.854-12.232 2.41-18.53 2.41h-281.466c-2.596-0.186-7.968 1.482-12.416 5.002-4.632 3.334-7.966 8.154-8.708 11.118l-87.088 273.314c-2.224 7.040-5.004 13.34-9.824 19.64-2.59 3.15-5.742 6.486-10.376 9.264s-10.746 5.002-17.418 5.002c-6.67 0-12.784-2.038-17.416-5.002-6.856-4.262-10.746-9.45-13.712-14.082-2.964-4.818-4.818-9.636-6.486-14.824v0l-86.902-273.5c-0.926-2.964-4.078-7.784-8.71-11.118-4.448-3.52-9.82-5.002-12.416-5.002h-281.652c-8.338-0.186-16.122-0.742-25.016-5.002-4.448-2.224-9.45-5.558-13.526-11.118-4.076-5.376-6.672-12.972-6.486-19.828 0-5.188 1.112-9.636 2.592-13.342 2.224-5.558 5.374-9.634 8.526-13.34 3.15-3.522 6.67-6.486 10.376-9.266l227.73-168.99c1.854-1.296 4.262-4.264 6.114-8.338 1.854-3.894 2.964-8.896 2.964-12.788 0-2.222-0.368-4.262-0.738-5.558l-86.908-273.128c-2.038-6.296-3.334-12.412-3.334-19.456 0-6.486 1.112-14.824 7.412-23.348 3.15-4.076 7.596-7.784 12.6-10.006 5.002-2.22 10.006-2.964 14.268-2.964 7.042 0 12.6 1.854 17.232 3.89 4.822 2.042 8.894 4.632 12.972 7.784l227.73 168.99c2.224 1.67 7.412 3.708 12.97 3.522 5.56 0 10.748-1.852 12.97-3.522l227.73-168.99c4.076-2.964 8.154-5.558 12.97-7.784 4.82-2.038 10.192-3.89 17.232-3.89h0.188c4.262 0 9.266 0.742 14.082 2.964 7.412 3.338 13.712 10.006 16.492 16.308 2.964 6.296 3.518 12.044 3.708 17.044 0 7.042-1.482 13.158-3.336 19.456l-86.906 273.5c-0.372 1.296-0.742 3.336-0.742 5.558 0 3.89 1.116 8.708 2.966 12.6 1.854 4.078 4.446 7.042 6.116 8.338l227.73 168.992c5 3.706 9.45 7.782 13.528 13.156 2.038 2.594 3.89 5.746 5.37 9.45 1.48 3.706 2.596 8.338 2.596 13.342-0.37 6.858-2.964 14.456-7.040 19.83zM466.206 829.084v0 0 0zM463.798 829.826v0 0z" />
<glyph unicode="&#xe643;" d="M524.812 907.306c-0.366 0-0.552 0-0.924 0-6.658 0-12.758-2.036-17.382-4.996-6.844-4.254-10.728-9.432-13.688-14.056-2.96-4.808-4.808-9.618-6.474-14.796l-86.744-272.994c-0.924-2.96-4.070-7.768-8.694-11.098-4.44-3.514-9.802-4.994-12.392-4.994h-281.132c-8.324-0.186-16.092-0.74-24.97-4.994-4.44-2.22-9.432-5.548-13.5-11.098-4.070-5.364-6.662-12.948-6.472-19.792 0-5.178 1.108-9.618 2.586-13.316 2.22-5.55 5.364-9.618 8.51-13.318 3.146-3.512 6.66-6.472 10.358-9.248l227.312-168.678c1.848-1.294 4.252-4.256 6.102-8.324 1.85-3.886 2.96-8.878 2.96-12.762 0-2.22-0.368-4.254-0.738-5.548l-86.748-272.624c-2.034-6.288-3.33-12.39-3.33-19.42 0-6.474 1.11-14.798 7.398-23.306 3.144-4.066 7.582-7.768 12.576-9.986 4.994-2.216 9.99-2.958 14.244-2.958 7.028 0 12.576 1.85 17.2 3.882 4.812 2.038 8.878 4.624 12.948 7.77l227.312 168.68c2.22 1.666 7.4 3.7 12.946 3.516 0.372 0 0.554 0 0.926 0l-0.19 734.458z" />
<glyph unicode="&#xe644;" d="M977.174 564.308c-6.288 8.32-13.87 11.65-19.97 13.684-6.288 1.848-12.206 2.404-18.49 2.404h-280.872c-2.59-0.186-7.952 1.478-12.388 4.992-4.624 3.328-7.952 8.136-8.692 11.094l-86.904 272.734c-2.218 7.026-4.992 13.312-9.802 19.598-2.586 3.144-5.73 6.472-10.354 9.246s-10.722 4.994-17.38 4.994c-6.654 0-12.754-2.034-17.376-4.994-6.842-4.252-10.724-9.43-13.684-14.052-2.958-4.808-4.808-9.616-6.472-14.792v0l-86.72-272.92c-0.924-2.958-4.068-7.766-8.692-11.094-4.438-3.512-9.798-4.994-12.388-4.994h-281.058c-8.32-0.184-16.086-0.74-24.962-4.992-4.438-2.218-9.43-5.546-13.498-11.094-4.068-5.364-6.66-12.944-6.472-19.786 0-5.176 1.108-9.616 2.586-13.314 2.22-5.546 5.364-9.614 8.508-13.312 3.144-3.514 6.656-6.472 10.354-9.246l227.25-168.632c1.85-1.294 4.252-4.254 6.102-8.32 1.85-3.886 2.958-8.876 2.958-12.76 0-2.218-0.366-4.252-0.736-5.546l-86.724-272.55c-2.034-6.286-3.328-12.386-3.328-19.416 0-6.47 1.11-14.792 7.396-23.296 3.144-4.068 7.58-7.766 12.574-9.986 4.994-2.214 9.986-2.958 14.238-2.958 7.026 0 12.574 1.85 17.196 3.882 4.81 2.038 8.876 4.624 12.944 7.766l227.25 168.634c2.218 1.664 7.396 3.698 12.944 3.514 5.546 0 10.722-1.85 12.944-3.514l227.246-168.634c4.068-2.958 8.136-5.546 12.944-7.766 4.81-2.034 10.17-3.882 17.196-3.882h0.19c4.252 0 9.244 0.74 14.050 2.958 7.396 3.332 13.684 9.986 16.458 16.276 2.958 6.284 3.512 12.020 3.7 17.008 0 7.030-1.478 13.13-3.328 19.416l-86.722 272.92c-0.372 1.294-0.74 3.328-0.74 5.546 0 3.882 1.112 8.692 2.96 12.574 1.85 4.068 4.436 7.026 6.102 8.32l227.248 168.634c4.99 3.698 9.43 7.766 13.498 13.128 2.034 2.588 3.882 5.732 5.36 9.43 1.476 3.698 2.59 8.322 2.59 13.314-0.38 6.84-2.966 14.422-7.034 19.784zM506.22 859.23v0 0 0zM503.816 859.97v0 0zM702.036 384.394c-10.728-7.95-18.306-18.49-23.484-29.584-5.176-11.28-7.95-23.296-7.95-35.874 0-7.396 0.924-14.792 3.328-22.374l71.924-226.324-187.674 139.42c-14.056 10.17-30.142 14.422-45.86 14.422v580.604l71.558-225.214c5.364-16.456 15.906-29.4 28.476-38.83 12.756-9.43 28.104-15.716 45.486-15.902h233.35l-189.154-140.344z" />
<glyph unicode="&#xe645;" d="M785.036-10.2c-7.012 0-12.544 1.844-17.158 3.872v0c-4.798 2.032-8.856 4.614-12.914 7.75v0l-226.75 168.262c-2.21 1.66-7.378 3.692-12.914 3.504v0c-5.536 0-10.702-1.844-12.916-3.504v0l-226.746-168.262c-4.060-2.954-8.118-5.536-12.916-7.75v0c-4.8-2.028-10.148-3.872-17.158-3.872v0c-4.248 0-9.226 0.734-14.208 2.95v0c-4.982 2.214-9.412 5.906-12.546 9.964v0c-6.274 8.484-7.38 16.79-7.38 23.246v0c0 7.012 1.476 13.098 3.322 19.372v0l86.714 272.504c0.37 1.292 0.736 3.32 0.736 5.536v0c0 3.876-1.106 8.672-2.952 12.73v0c-1.844 4.058-4.428 7.012-6.088 8.3v0l-226.56 168.080c-3.69 2.766-7.196 5.718-10.334 9.224v0c-3.136 3.504-6.088 7.564-8.486 13.284v0c-1.476 3.69-2.584 8.302-2.584 13.284v0c-0.184 6.826 2.398 14.39 6.458 19.742v0c4.058 5.534 9.042 8.856 13.468 11.070v0c9.042 4.244 16.792 4.796 24.908 4.982v0h280.252c2.584-0.186 7.932 1.474 12.362 4.982v0c4.612 3.32 7.934 8.118 8.672 11.070v0l86.53 272.318c1.662 5.166 3.69 9.964 6.458 14.76v0c2.956 4.796 6.828 9.78 13.654 14.022v0c4.614 2.768 10.702 4.982 17.34 4.982v0c6.644 0 12.73-2.030 17.344-4.982v0c4.612-2.768 7.748-6.088 10.33-9.226v0c4.982-6.458 7.568-12.73 9.782-19.556v0l86.528-272.318c0.736-2.952 4.060-7.75 8.672-11.070v0c4.426-3.506 9.78-4.982 12.36-4.982v0h280.252c6.274 0 12.176-0.554 18.45-2.398v0c6.274-2.030 13.654-5.352 19.926-13.654v0c4.060-5.35 6.644-12.916 6.458-19.742v0c0-5.166-1.106-9.594-2.58-13.284v0c-1.478-3.69-3.324-6.826-5.35-9.41v0c-4.060-5.35-8.486-9.226-13.468-13.098v0l-226.748-168.264c-1.846-1.29-4.244-4.242-6.088-8.3v0c-1.846-3.876-2.952-8.856-2.952-12.73v0c0-2.214 0.37-4.246 0.734-5.536v0l86.53-272.32c2.030-6.274 3.322-12.36 3.322-19.372v0c0-4.98-0.74-10.7-3.692-16.972v0c-2.768-6.274-8.856-12.918-16.42-16.238v0c-4.43-2.028-9.412-2.95-13.654-2.95v0 0 0zM561.056 214.148l187.262-139.114-71.766 225.828c-2.398 7.378-3.32 14.942-3.32 22.324v0c0 12.546 2.768 24.54 7.932 35.792v0c5.166 11.070 12.728 21.398 23.432 29.52v0l188.924 140.218h-233.020c-17.342 0.184-32.656 6.458-45.384 15.868v0c-12.544 9.41-23.062 22.324-28.414 38.744v0l-71.4 224.534-71.4-224.718c-5.352-16.42-15.87-29.334-28.414-38.746v0c-12.732-9.41-28.044-15.682-45.386-15.866v0h-232.838l188.922-140.216c10.704-7.938 18.266-18.45 23.432-29.52v0c5.166-11.258 7.932-23.25 7.932-35.792v0c0-7.382-0.922-14.762-3.32-22.324v0l-71.766-225.828 187.080 139.296c14.026 10.332 30.074 14.39 45.756 14.39v0c15.68 0.002 31.734-4.242 45.756-14.39v0zM509.212 862.29v0 0 0 0 0zM506.812 863.028v0 0z" />
<glyph unicode="&#xe653;" d="M512 960c282.8 0 512-229.2 512-512s-229.202-512-512-512c-282.8 0-512 229.2-512 512 0 282.8 229.2 512 512 512M512 900c-61 0-120.202-12-176-35.4-53.8-22.8-102-55.4-143.6-97-41.6-41.6-74.2-89.8-97-143.6-23.4-55.8-35.4-115-35.4-176s12-120.2 35.4-176c22.8-53.8 55.4-102.2 96.8-143.6 41.6-41.6 89.8-74.202 143.6-96.8 55.602-23.6 114.8-35.4 176-35.4 61 0 120.202 12 176 35.4 53.8 22.8 102.202 55.4 143.6 96.8 41.6 41.6 74.2 89.8 96.8 143.6 23.6 55.6 35.4 114.8 35.4 176 0 61-12 120.2-35.4 176-22.8 53.8-55.4 102.2-96.8 143.6-41.4 41.6-89.6 74.2-143.4 97-55.8 23.4-115 35.4-176 35.4v0zM413.6 512c0-35.346-28.654-64-64-64s-64 28.654-64 64c0 35.346 28.654 64 64 64 35.346 0 64-28.654 64-64zM739.398 512c0-35.346-28.654-64-64-64s-64 28.654-64 64c0 35.346 28.654 64 64 64 35.346 0 64-28.654 64-64zM728.2 348.6c10.2-13.2 7.8-32-5.4-42v0c-67.6-52.6-138.4-80.6-210.4-80.6v0c-72 0-142.8 28-210.4 80.6v0c-13.202 10.202-15.6 29-5.4 42v0c10.2 13.202 29 15.6 42 5.4v0c60.4-46.6 117.6-68 173.6-68v0c56 0 113.2 21.4 173.6 68v0 0c5.4 4.2 12 6.2 18.4 6.2v0c9.198 0 18.198-4 24-11.6v0z" />
<glyph unicode="&#xe657;" d="M972.878 275.066h-70.050v228.636c0 7.588-3.116 15.176-8.56 20.626-5.45 5.448-13.040 8.562-20.626 8.562h-329.822v178.044h118.698c21.402 0 38.916 17.512 38.916 38.916v171.234c0 21.404-17.514 38.916-38.916 38.916h-295.768c-21.404 0-38.916-17.512-38.916-38.916v-171.234c0-21.404 17.512-38.916 38.916-38.916h118.696v-178.044h-329.818c-7.784 0-15.176-3.114-20.628-8.562-5.448-5.45-8.558-13.038-8.558-20.626v-228.636h-71.024c-21.404 0-38.916-17.512-38.916-38.916v-171.234c-0.002-21.404 17.512-38.916 38.916-38.916h203.338c21.404 0 38.916 17.512 38.916 38.916v171.234c0 21.404-17.512 38.916-38.916 38.916h-73.942v199.448h300.632v-199.448h-72.968c-21.404 0-38.916-17.512-38.916-38.916v-171.234c0-21.404 17.512-38.916 38.916-38.916h203.338c21.404 0 38.916 17.512 38.916 38.916v171.234c0 21.404-17.512 38.916-38.916 38.916h-71.996v199.448h300.63v-199.448h-74.914c-21.404 0-38.916-17.512-38.916-38.916v-171.234c0-21.404 17.512-38.916 38.916-38.916h203.34c21.404 0 38.916 17.512 38.916 38.916v171.234c0.002 21.404-17.51 38.916-38.914 38.916zM386.208 901.624h256.852v-132.316h-256.852v132.316zM239.298 84.376h-164.422v132.316h164.422v-132.316zM596.358 84.376h-164.422v132.316h164.422v-132.316zM953.418 84.376h-164.422v132.316h164.422v-132.316z" />
<glyph unicode="&#xe658;" d="M1003.6 498l-163.798 163.8-42.4-42.4 140.798-140.8h-591.398v-60h591.398l-140.8-140.8 42.4-42.4 163.8 163.8c13.6 13.602 20.4 31.8 20.4 49.6v0.2c0 17.4-6.8 35.4-20.4 49zM46-64h816c22 0 40 18 40 40v155l-60-2v-133h-776v904h776v-123l60 1v142c0 22-18 40-40 40h-816c-22 0-40-18-40-40v-944c0-22 18-40 40-40z" />
<glyph unicode="&#xe659;" d="M655.2 498l-163.8 163.8-42.4-42.4 140.8-140.8h-591.4v-60h591.4l-140.8-140.8 42.4-42.4 163.8 163.8c13.6 13.602 20.4 31.8 20.4 49.6v0.2c0 17.4-6.8 35.4-20.4 49zM984 960h-816c-22 0-40-18-40-40v-325.6h60v305.6h776v-904h-776v308.4h-60v-328.4c0-22 18-40 40-40h816c22 0 40 18 40 40v944c0 22-18 40-40 40z" />
<glyph unicode="&#xe65a;" d="M78.234 122.676v144.024c0 14.064 11.352 25.416 25.416 25.416v0c14.064 0 25.416-11.352 25.416-25.416v0-144.024c0-14.062-11.352-25.416-25.416-25.416v0c-14.062 0-25.416 11.354-25.416 25.416v0zM282.41 122.676v207.564c0 14.060 11.352 25.414 25.416 25.414v0c14.064 0 25.416-11.354 25.416-25.414v0-207.564c0-14.062-11.352-25.416-25.416-25.416v0c-14.064 0-25.416 11.354-25.416 25.416v0zM486.584 122.676v297.366c0 14.064 11.352 25.418 25.416 25.418v0c14.062 0 25.416-11.354 25.416-25.418v0-297.366c0-14.062-11.354-25.416-25.416-25.416v0c-14.062 0-25.416 11.354-25.416 25.416v0zM690.76 122.676v473.584c0 14.064 11.35 25.416 25.414 25.416v0c14.064 0 25.418-11.352 25.418-25.416v0-473.584c0-14.062-11.354-25.416-25.418-25.416v0c-14.064 0-25.414 11.354-25.414 25.416v0zM894.934 122.676v650.648c0 14.064 11.35 25.416 25.416 25.416v0c14.064 0 25.416-11.352 25.416-25.416v0-650.648c0-14.062-11.352-25.416-25.416-25.416v0c-14.066 0-25.416 11.354-25.416 25.416v0z" />
<glyph unicode="&#xe65d;" d="M195.4 743.1l-37.8 130.4h-157.6v-61.6h108l138.6-534.4h658l59.4 465.6h-768.6zM848.8 337.1h-550.6l-90 346.2h680l-39.4-346.2zM484 97.9c0-41.642-33.758-75.4-75.4-75.4s-75.4 33.758-75.4 75.4c0 41.642 33.758 75.4 75.4 75.4 41.642 0 75.4-33.758 75.4-75.4zM838.4 97.9c0-41.642-33.758-75.4-75.4-75.4s-75.4 33.758-75.4 75.4c0 41.642 33.758 75.4 75.4 75.4 41.642 0 75.4-33.758 75.4-75.4z" />
<glyph unicode="&#xe65e;" d="M512.5 960v0c120.6-1 262.6-162.4 447-162.4v-29.6c0-598.2-423.8-819.8-447-831.6l-0.4-0.202c0 0 0.4-0.2 0 0-0.4-0.2 0 0 0 0l-0.4 0.202c-23.4 11.8-447.2 233.4-447.2 831.6v29.6c184.4 0 326.4 161.4 447 162.4v0c0.2 0 0.4 0 0.4 0 0.2 0 0.4 0 0.6 0M511.7 900h0.202c-38.4-0.2-91.202-29.6-147-60.8-70.4-39.2-148.8-82.8-240.202-96.8 2.6-119.8 23.6-231.8 62.4-333.6 33.2-87.202 79.8-167.4 138.4-238.202 73-88.4 147.798-141.2 186.4-165.2 38.6 24 113.398 76.798 186.398 165.2 58.6 70.8 105.202 151 138.4 238.202 38.798 101.798 59.798 213.798 62.4 333.6-91.4 14.2-169.6 57.6-240.2 97-55.602 31-108.4 60.4-146.8 60.6v0 0c-0.198 0-0.198 0-0.398 0v0 0z" />
<glyph unicode="&#xe65f;" d="M928.75 523.226l-341.606 341.442c-4.92 4.918-11.536 7.632-18.318 7.632-3.394 0-6.618-0.68-9.84-2.036-9.668-4.072-15.942-13.4-15.942-23.916v-205.238h-0.68c-103.806-10.518-185.562-49.7-247.812-103.128-67.338-57.84-112.458-131.624-142.82-203.542-56.99-135.354-63.266-265.28-64.114-282.412 0-0.172 0-0.342 0-0.51v0-0.848c0-0.338 0-0.338 0-0.512 0-0.17 0-0.338 0-0.676 0-13.91 11.026-25.272 24.934-25.784 0.338 0 0.508 0 0.848 0 0 0 0 0 0.168 0v0c13.74 0 25.274 10.856 25.782 24.766 3.222 75.142 23.748 130.778 53.43 173.688 29.852 42.746 69.374 72.936 112.626 94.48 85.32 42.742 184.036 49.526 232.038 49.526 0.51 0 1.018 0 1.358 0 1.188 0 2.374 0 3.394 0h0.848v-202.862c0-10.52 6.274-19.848 15.942-23.918 3.22-1.358 6.614-2.038 9.84-2.038 6.784 0 13.398 2.544 18.318 7.632l341.608 341.612c5.088 5.090 7.632 11.704 7.632 18.318-0.168 6.62-2.712 13.234-7.634 18.324zM594.776 225.714v165.376c0 13.568-10.35 24.594-23.746 25.784-0.51 0-12.552 1.018-32.228 1.018-29.176 0-75.65-2.034-128.060-12.382-52.414-10.346-111.27-29.004-164.7-63.098-16.962-10.856-33.414-23.066-48.68-37.316l-1.358 1.018c28.326 69.542 70.392 139.766 132.302 192.688 59.366 50.716 136.542 86.676 241.368 92.782l1.696 0.17c13.23 1.188 23.576 12.38 23.576 25.782v166.564l279.192-279.194-279.362-279.192z" />
<glyph unicode="&#xe662;" d="M959.676 40.444l-320.020 320.208c54.31 63.588 87.052 145.91 87.052 235.992 0.004 200.604-162.748 363.356-363.352 363.356-200.602 0-363.356-162.752-363.356-363.356 0-200.604 162.752-363.354 363.356-363.354 90.082 0 172.596 32.738 235.988 87.050l320.208-320.208c5.488-5.486 12.87-8.324 20.062-8.324s14.568 2.838 20.060 8.324c11.168 11.358 11.168 29.148 0.002 40.312zM578.232 383.124c-57.908-57.912-134.934-89.706-216.876-89.706s-158.968 31.984-216.878 89.706c-57.72 57.908-89.702 134.93-89.702 216.876 0 81.944 31.982 158.968 89.702 216.876 57.912 57.72 134.938 89.706 216.878 89.706 81.944 0 158.968-31.982 216.876-89.706 57.718-57.91 89.706-134.934 89.706-216.876 0-81.946-31.984-158.968-89.706-216.876z" />
<glyph unicode="&#xe664;" d="M906.824 627.702l-215.12 215.124c-12.566 12.568-37.704 23.014-55.656 23.014h-509.242c-17.954 0-32.644-14.69-32.644-32.644v-770.39c0-17.954 14.69-32.644 32.644-32.644h770.39c17.954 0 32.644 14.692 32.644 32.644v509.24c0 17.954-10.448 43.088-23.016 55.656zM263.092 816.874h304.404v-215.448h-304.404v215.448zM757.646 79.124h-494.554v319.912h494.552v-319.912zM880.876 79.124h-74.266v368.876h-592.482v-368.876h-71v737.75h71v-228.506c0-19.75 14.69-35.908 32.644-35.908h337.046c17.954 0 32.644 16.158 32.644 35.908v228.506h19.586c5.218-0.164 17.46-5.224 21.050-8.814l214.958-214.96c3.594-3.754 8.652-15.996 8.812-21.054l0.008-492.922zM291.982 629.988h115.558v158.81h-115.558v-158.81z" />
<glyph unicode="&#xe665;" d="M641.836 112.236l-4.652 26.212c-2.328 11.328-5.898 26.53-7.602 32.576-1.242 5.124-8.842 29.786-10.394 34.286-0.464 1.392-3.412 9.46-6.516 17.218-3.102 7.756-6.36 16.288-8.532 21.406l-13.492 29.472c-5.12 10.24-13.344 25.596-17.528 32.886-1.71 2.948-6.98 11.48-11.792 19.236-4.808 7.6-9.926 15.512-11.012 16.906-0.312 0.31-1.864 2.636-3.724 5.122-1.862 2.636-4.344 5.738-6.822 9.15-4.812 6.362-10.242 13.496-13.654 17.838l-22.958 26.992c-3.878 4.344-7.912 8.534-11.014 11.944l-0.156-0.152-5.894 6.516c-0.156 0.154-0.31 0.31-0.31 0.31-0.466 0.464-1.084 0.93-1.706 1.706-1.396 1.396-3.256 3.104-5.43 5.12-4.032 3.722-8.996 8.376-13.186 12.256l-27.146 23.114c-8.996 7.134-20.476 15.978-24.044 18.614-1.24 0.932-7.602 5.122-13.65 9.308-6.206 4.188-13.032 8.688-16.598 10.858-1.086 0.622-4.5 2.638-8.376 4.964-4.034 2.328-8.84 4.962-13.804 7.756-9.464 5.276-19.548 10.704-24.354 13.032l-29.628 13.65c-10.55 4.498-24.354 9.928-28.856 11.634-1.706 0.622-8.842 2.948-15.512 5.12s-13.804 4.498-16.908 5.274c-1.862 0.62-11.168 2.948-20.324 5.274-8.998 2.17-18.616 4.498-24.044 5.584l-26.214 4.654c-11.016 1.706-29.942 3.878-40.954 4.808l-13.65 0.776v-69.96l19.544-1.396h0.464c13.342-1.55 32.886-4.654 46.072-7.134l0.622-0.156 29.008-6.824h0.156l0.622-0.156c12.252-3.412 26.526-7.756 34.126-10.392 4.496-1.55 11.012-4.19 18.304-7.136s14.272-5.738 18.616-7.756c2.944-1.24 6.046-2.792 9.926-4.808 3.878-2.016 8.376-4.19 12.876-6.67 9.15-4.808 18.458-9.774 24.664-13.496l0.622-0.31 34.746-22.492h0.158l0.618-0.464c7.448-5.43 14.736-10.548 18.772-13.652 1.394-1.086 2.326-1.708 3.568-2.636 1.396-1.086 2.328-2.016 3.878-3.412s3.568-3.104 5.74-4.964c4.342-3.878 9.618-8.532 14.272-12.718l0.618-0.466 31.956-31.954c6.206-6.826 12.1-13.496 15.512-17.216 1.084-1.242 1.858-2.174 2.946-3.416 1.086-1.394 1.862-2.326 3.102-4.032 1.24-1.708 2.792-3.724 4.5-6.050 3.412-4.654 7.598-10.392 11.324-15.514l0.464-0.62 22.494-34.746 0.158-0.156 0.308-0.464c6.516-11.17 14.272-25.286 18.306-33.506 2.328-4.812 5.586-12.104 8.84-19.702 3.262-7.602 6.206-14.582 7.602-18.304 0.93-2.484 1.864-5.122 3.102-8.532 1.088-3.414 2.482-7.45 3.878-11.634 2.792-8.376 5.584-17.532 7.446-24.042l0.158-0.622 7.6-31.49v-0.158l0.156-0.618c2.634-13.186 5.738-32.734 7.29-46.072v-0.622l1.396-19.232h69.958l-0.774 13.802c-1.242 10.696-3.57 29.618-5.278 40.478zM216.024 246.572c-26.216 0-49.64-10.548-66.86-27.764v0c-17.216-17.066-27.764-40.49-27.764-66.706s10.548-49.638 27.764-66.862c17.22-17.214 40.644-27.61 66.86-27.764 26.214 0 49.64 10.548 66.858 27.764 17.22 17.222 27.612 40.644 27.768 66.862 0 26.212-10.548 49.638-27.612 66.858-17.374 17.064-40.798 27.612-67.014 27.612zM898.566 113.788l-3.262 26.060c-1.704 11.17-4.804 30.404-6.98 41.418l-5.738 26.836c-2.636 11.17-7.446 29.94-10.546 40.796l-8.376 27.614c-3.57 11.016-9.778 28.698-13.496 38.47-2.484 6.672-10.242 25.44-14.274 34.902-1.086 2.636-2.016 4.81-2.324 5.43 0 0.156 0 0.156 0 0.156v0c-0.16 0.156-2.484 5.274-4.964 10.548-2.48 5.428-5.586 11.792-8.066 16.908l-15.82 30.712c-5.59 10.082-14.43 25.596-18.926 33.198-4.036 6.822-21.102 33.194-23.734 36.918-0.934 1.396-5.586 7.912-10.394 14.582-4.812 6.67-10.082 13.806-13.496 18.304l-24.82 31.024c-7.136 8.534-19.856 22.804-27.458 31.026l-38.934 39.246c-8.066 7.602-22.34 20.322-30.718 27.612l-35.52 28.542c-9.308 7.136-21.098 15.824-24.82 18.46-1.55 1.086-7.756 5.274-13.96 9.462-6.36 4.188-13.028 8.686-16.906 11.168-2.948 1.862-12.878 7.912-22.65 13.496-9.462 5.584-19.544 11.324-24.508 13.96l-30.714 15.824c-5.276 2.636-10.704 5.118-14.894 7.292-4.186 2.016-7.91 3.722-8.374 4.032-0.464 0.156-5.274 2.328-10.394 4.5-5.274 2.328-11.634 4.964-16.598 6.98-3.72 1.552-15.978 6.206-27.612 10.394-11.48 4.188-23.422 8.376-28.698 10.084l-27.612 8.376c-10.858 3.102-29.784 7.912-40.796 10.548l-26.682 5.584c-11.168 2.172-30.25 5.43-41.574 7.134l-25.288 3.106c-11.166 1.242-30.404 2.792-41.726 3.568l-15.512 0.62v-67.79l18.616-0.93c12.564-0.932 28.386-2.328 36.608-3.258 8.842-1.086 31.646-4.344 38.47-5.43 4.034-0.62 11.326-2.172 19.858-3.878 8.532-1.706 17.682-3.722 24.044-5.12l0.464-0.156 28.54-7.292h0.158l0.31-0.156c12.564-3.568 31.49-9.462 43.588-13.496l0.464-0.156 30.094-11.168h0.154l0.31-0.156c11.79-4.654 27.768-11.48 36.764-15.512 9.924-4.498 34.126-16.598 40.174-19.856 3.572-1.862 9.618-5.428 17.064-9.618 7.292-4.188 15.206-8.842 20.788-12.254l0.31-0.156 34.438-22.494h0.154l0.31-0.154c5.12-3.568 10.236-7.136 14.426-10.084 4.344-2.948 7.448-5.274 9.462-6.67 1.242-0.93 2.484-2.016 4.498-3.568 2.016-1.55 4.344-3.414 6.982-5.43 5.118-4.188 11.168-8.998 16.132-13.030l0.464-0.31 23.734-20.476 0.308-0.31c9.304-8.376 19.7-18.15 24.51-22.802 2.792-2.792 7.91-8.066 13.958-14.426 5.894-6.206 12.254-13.032 16.598-17.84l0.308-0.466 20.476-23.732 0.464-0.464c3.878-4.808 7.758-9.62 11.020-13.652 3.254-4.034 5.738-6.98 7.132-8.996 0.934-1.242 2.016-2.636 3.414-4.654 1.394-2.018 3.258-4.498 5.118-7.134 3.878-5.43 8.378-11.792 11.946-16.908l0.312-0.31 22.336-34.438 0.156-0.31c6.516-10.706 13.648-22.802 16.906-28.542 1.708-3.258 4.808-8.998 8.222-15.668 3.41-6.516 6.824-13.496 8.996-17.838 2.64-5.43 6.824-14.892 11.476-25.442 4.5-10.392 9-20.942 11.636-27.3l0.156-0.31 11.168-30.094 0.156-0.308c4.188-12.256 10.082-31.182 13.652-43.744l0.156-0.466 6.668-28.698v-0.464c2.792-12.256 5.742-26.372 7.136-32.886 1.242-6.98 4.5-26.992 5.586-34.902 0.618-4.81 1.55-13.496 2.636-23.426 0.93-9.774 1.86-20.008 2.484-26.678v-0.468l0.93-19.080h67.79l-0.622 14.272c-0.608 11.478-2.32 30.868-3.402 42.192z" />
<glyph unicode="&#xe666;" d="M859.224 879.5c46.352 0 84.278-37.924 84.278-84.278v-694.446c0-46.352-37.926-84.278-84.278-84.278h-694.446c-46.352 0-84.278 37.926-84.278 84.278v694.446c0 46.352 37.924 84.278 84.278 84.278h694.446M859.224 828.934h-694.446c-18.204 0-33.71-15.508-33.71-33.71v-694.446c0-18.204 15.508-33.71 33.71-33.71h694.446c18.204 0 33.71 15.508 33.71 33.71v694.444c0 18.204-15.508 33.712-33.71 33.712v0zM316.818 318.464v0c-16.522 0-31.52-6.068-43.154-16.182v0.17l-3.372-3.372c-11.964-11.968-19.212-28.316-19.212-46.524 0-18.204 7.248-34.552 19.212-46.52 11.97-11.966 28.318-19.216 46.524-19.216 18.204 0 34.554 7.418 46.52 19.216 11.966 11.966 19.216 28.316 19.216 46.52 0 18.208-7.25 34.554-19.216 46.526-11.964 11.966-28.316 19.382-46.518 19.382zM601 226.942v0l-3.204 17.36c-1.686 7.586-3.876 17.7-5.058 21.742-1.010 3.708-5.898 19.72-6.91 22.926-0.336 1.010-2.36 6.236-4.378 11.46-2.024 5.224-4.214 10.79-5.734 14.16l-8.932 19.55c-3.372 6.91-8.932 17.024-11.63 21.912-1.18 2.024-4.718 7.752-7.922 12.808-3.2 5.056-6.57 10.114-7.248 11.294-0.338 0.338-1.182 1.686-2.53 3.372-1.18 1.686-2.866 3.876-4.55 6.068-3.2 4.214-6.742 8.936-9.098 11.798l-15.17 17.868c-2.7 2.868-5.228 5.73-7.248 7.924l-3.372 3.54-0.508 0.674-0.168 0.168-0.166 0.172-0.17 0.164c-0.338 0.338-0.672 0.676-1.18 1.18-1.010 0.844-2.19 2.024-3.54 3.372-2.696 2.53-5.9 5.562-8.764 8.092l-18.036 15.338c-6.068 4.888-13.652 10.62-16.18 12.472-1.010 0.674-5.056 3.54-9.102 6.236-4.214 2.698-8.596 5.73-11.124 7.248-0.842 0.506-3.034 1.854-5.732 3.372-2.696 1.518-5.9 3.372-9.098 5.056-6.238 3.54-12.98 7.080-16.184 8.596v0l-19.552 8.934c-7.080 3.036-16.18 6.574-19.384 7.754-1.348 0.506-5.9 2.024-10.28 3.54-4.386 1.518-9.104 2.866-11.128 3.542-1.348 0.504-7.414 2.022-13.484 3.538-5.9 1.518-12.304 3.036-16.012 3.708v0l-17.36 3.202c-7.416 1.18-19.89 2.528-27.306 3.202v0l-12.642 0.676v-52.926l15.676-1.18h0.336c8.6-1.012 21.576-3.036 30.002-4.72h0.336l18.878-4.55 0.504-0.168c8.090-2.192 17.53-5.056 22.25-6.742 2.696-1.012 7.080-2.698 11.966-4.55 4.722-1.854 9.442-3.876 12.136-5.056 1.858-0.844 3.876-1.854 6.406-3.034 2.528-1.35 5.394-2.698 8.428-4.382 6.070-3.204 12.136-6.406 16.184-8.766l0.338-0.17 22.754-14.662 0.334-0.172c4.888-3.54 9.608-6.91 12.308-8.932 0.842-0.674 1.514-1.014 2.19-1.686 0.842-0.674 1.348-1.182 2.528-2.192 1.010-0.844 2.358-2.024 3.708-3.204 2.862-2.53 6.404-5.562 9.438-8.428l0.338-0.336 20.9-20.902c4.046-4.55 7.922-8.764 10.286-11.292 0.67-0.842 1.18-1.348 1.854-2.192 0.674-0.842 1.18-1.518 2.022-2.528 0.842-1.014 1.854-2.362 2.866-4.044 2.19-3.036 5.056-6.742 7.414-10.114l0.172-0.338 14.664-22.754 0.168-0.336c4.214-7.25 9.27-16.52 11.966-21.912 1.52-3.036 3.542-7.922 5.732-12.812 2.192-5.056 4.044-9.608 5.056-11.966 0.506-1.518 1.18-3.204 2.024-5.394 0.672-2.192 1.686-4.886 2.528-7.584 1.856-5.562 3.708-11.462 4.886-15.676l0.172-0.338 4.882-20.732 0.172-0.506c1.688-8.598 3.708-21.406 4.718-30.17v-0.338l1.012-12.47v-3.204h53.096l-0.676 12.64c-0.34 7.076-1.858 19.55-2.868 26.8zM773.094 186.992l-0.506 12.98c-0.506 7.584-1.518 20.392-2.362 27.81v0l-2.19 17.192c-1.182 7.584-3.202 20.226-4.552 27.476l-3.706 17.866c-1.688 7.418-4.89 19.888-6.914 27.136l-5.562 18.374c-2.36 7.418-6.574 19.046-8.934 25.452-1.686 4.55-6.742 16.856-9.442 23.092-0.672 1.686-1.348 3.034-1.514 3.542l-0.172 0.336-0.168 0.172c-0.504 0.842-1.686 3.708-3.204 6.91-1.686 3.542-3.708 7.756-5.392 11.126l-10.45 20.394c-3.708 6.742-9.442 17.024-12.64 22.080-2.7 4.72-13.992 21.912-15.678 24.442-0.672 1.010-3.708 5.224-6.912 9.776-3.202 4.382-6.742 9.102-8.932 12.136l-16.35 20.562c-4.888 5.73-13.148 15.17-18.206 20.564l-25.788 25.958c-5.394 5.224-14.834 13.652-20.564 18.374l-23.598 18.876c-6.238 4.72-13.99 10.452-16.52 12.306-1.18 0.842-5.224 3.54-9.27 6.236-4.214 2.698-8.598 5.732-11.124 7.416-2.022 1.348-8.598 5.224-15 8.934-6.236 3.708-12.978 7.416-16.182 9.27l-20.396 10.45c-3.54 1.686-7.080 3.54-9.944 4.888-2.864 1.348-5.226 2.528-5.73 2.696-0.336 0.168-3.372 1.518-6.912 3.034-3.54 1.516-7.754 3.202-10.956 4.718-2.698 1.18-10.62 4.046-18.372 6.912-7.584 2.698-15.506 5.562-19.046 6.742l-18.206 5.562c-7.416 2.022-19.718 5.224-27.138 7.080l-17.698 3.708c-7.416 1.348-20.058 3.54-27.474 4.718l-16.856 2.024c-7.584 0.842-20.226 1.854-27.812 2.36l-13.822 0.504v-51.412l15.17-0.674c8.26-0.674 18.542-1.516 23.934-2.192 5.73-0.674 20.732-2.864 25.114-3.538 2.528-0.506 7.416-1.35 12.978-2.528 5.564-1.18 11.63-2.362 15.844-3.372h0.168l18.716-4.72h0.338c8.090-2.36 20.56-6.236 28.654-8.932h0.334l19.72-7.25h0.172c7.752-3.034 18.204-7.584 24.102-10.114 6.404-2.864 22.416-10.956 26.294-12.978 2.19-1.18 6.236-3.54 11.126-6.238 4.72-2.698 9.942-5.9 13.652-8.090l0.168-0.168 22.586-14.666 0.168-0.166c3.37-2.362 6.742-4.72 9.44-6.576 2.868-2.022 4.886-3.372 6.068-4.38 0.674-0.506 1.686-1.18 2.866-2.192 1.348-1.012 2.868-2.19 4.55-3.54 3.372-2.696 7.414-5.9 10.622-8.594l0.168-0.168 15.678-13.484 0.168-0.168c6.066-5.562 12.978-11.966 16.012-15.002 1.854-1.854 5.224-5.224 9.104-9.438 3.876-4.046 8.090-8.598 10.956-11.63l0.168-0.338 13.484-15.506 0.168-0.17c2.53-3.202 5.228-6.236 7.248-8.934 2.194-2.696 3.708-4.55 4.722-5.898 0.672-0.844 1.176-1.686 2.192-3.036 1.010-1.348 2.19-2.866 3.372-4.718 2.528-3.54 5.56-7.754 7.922-11.124l0.168-0.168 14.664-22.588 0.168-0.166c4.384-7.080 9.104-15.004 11.126-18.708 1.178-2.024 3.202-5.9 5.39-10.286 2.196-4.382 4.552-8.766 5.9-11.626 1.686-3.372 4.55-9.78 7.416-16.522 3.036-6.91 5.9-13.818 7.586-17.868v-0.17l7.248-19.89v-0.168c2.7-7.922 6.574-20.394 8.932-28.654v-0.336l4.714-18.708v-0.168c1.854-8.092 3.876-17.362 4.718-21.576 0.844-4.548 2.868-17.698 3.708-22.924 0.506-3.034 1.010-8.764 1.686-15.34 0.672-6.404 1.348-13.146 1.514-17.528v-0.336l0.676-12.474v-3.2l52.434-0.846z" />
<glyph unicode="&#xe667;" d="M875.008 832.672c-1.36 0-58.426-2.114-134.212-26.72-75.788-24.61-170.596-71.864-245.476-163.048-35.328-43.178-67.182-81.524-94.96-115.040l-87.862-1.208c-12.078-0.302-23.552-3.624-34.27-8.606-10.722-5.132-20.536-11.624-28.534-20.834l-37.742-44.234c-6.342-7.246-10.718-16.606-10.718-27.022-0.154-8.758 3.472-17.662 9.36-23.856 5.736-6.34 13.286-10.266 21.136-12.378l43.176-11.322c-4.53-5.284-6.792-8.002-6.792-8.002l-6.19-7.094 1.208-9.36c0.15-0.756 0.906-7.548 3.622-17.816l-22.946-38.496c-4.984-8.304-3.624-19.026 3.318-25.968l86.206-86.204c4.078-4.074 9.512-6.19 15.098-6.19 3.322 0 6.64 0.754 9.812 2.414l41.214 21.29c10.718-2.87 17.814-3.774 18.57-3.928l9.36-1.208 7.096 6.040c0 0 2.716 2.264 8 6.792l11.322-43.176c2.114-7.852 6.040-15.4 12.38-21.136 6.19-5.736 14.944-9.36 23.55-9.36 0.154 0 0.154 0 0.302 0 10.416 0 19.776 4.378 27.024 10.718l44.234 37.742c9.208 8.004 15.7 17.816 20.834 28.534 4.982 10.718 8.454 22.194 8.606 34.27l1.208 87.866c33.516 27.778 72.014 59.632 115.040 94.958 91.184 74.882 138.438 169.692 163.046 245.478s26.57 132.852 26.72 134.21l0.754 22.948-22.494-1.054zM248.030 429.582l34.12 40.008c2.264 2.716 7.85 7.096 14.192 9.964 6.19 3.018 13.286 4.68 16.756 4.528l51.484 0.606c-13.436-16.154-25.514-30.496-36.386-43.33-8.454-9.962-16.002-19.022-22.646-27.022l-57.52 15.246zM548.462 248.72c0-3.47-1.664-10.418-4.53-16.756-2.87-6.342-7.246-12.078-9.966-14.194l-40.006-34.118-15.248 57.518c18.116 15.248 41.668 35.176 70.352 59.030l-0.602-51.48zM828.81 686.23c-23.246-69.898-66.726-155.348-148.402-222.376-145.984-119.568-239.134-198.376-265.554-221.022-3.020 0.756-6.794 1.664-10.87 3.020v0c-2.568 0.756-5.284 1.664-8 2.718-15.55 5.886-34.876 15.852-50.878 31.856-16.606 16.608-26.722 36.536-32.458 52.386-2.566 6.946-4.226 12.982-5.284 17.512 22.646 26.574 101.452 119.568 221.022 265.556 68.086 82.88 155.042 126.662 225.696 149.61 35.18 11.472 66.278 17.664 88.168 20.984 3.622 0.606 6.944 1.056 9.962 1.36-3.022-22.644-9.36-59.18-23.402-101.604zM648.25 667.662c-46.196 0-83.788-37.442-83.788-83.79 0-46.196 37.44-83.788 83.788-83.788 46.198 0 83.79 37.44 83.79 83.788s-37.44 83.79-83.79 83.79zM677.39 554.886c-7.548-7.396-17.664-12.076-28.986-12.076-11.474 0-21.59 4.53-28.988 12.076-7.394 7.548-12.078 17.664-12.078 28.986 0 11.474 4.532 21.59 12.078 28.986 7.548 7.398 17.664 12.078 28.988 12.078 11.474 0 21.588-4.53 28.986-12.078 7.396-7.546 12.076-17.662 12.076-28.986 0-11.322-4.68-21.436-12.076-28.986zM284.866 179.426c-4.226-17.662-13.436-30.344-26.268-40.912-19.174-15.702-47.252-24.91-70.352-29.136-6.19-1.208-11.924-1.962-17.060-2.718 1.51 11.17 4.226 25.060 8.908 39.254 5.132 15.7 12.832 31.55 23.248 44.232 10.568 12.834 23.554 22.646 41.67 27.93l-12.078 40.912c-27.174-8-48.16-24.154-63.106-42.574-22.646-28.078-32.762-60.99-38.046-86.806-5.134-25.964-5.134-45.138-5.284-46.044v-21.288h21.286c1.208 0 36.836 0 77.148 12.378 20.080 6.19 41.668 15.7 60.388 30.796 18.718 15.096 34.57 36.536 41.060 64.314l-41.514 9.662z" />
<glyph unicode="&#xe66d;" d="M487.096 834.6c0 12.2-7.2 23-18.4 27.6-3.6 1.6-7.6 2.2-11.398 2.2-8 0-15.602-3.2-21.202-8.8l-331.4-331c-5.6-5.6-8.798-13.2-8.798-21.2s3.2-15.6 8.798-21.2l331.202-331.2c5.6-5.6 13.2-8.798 21.2-8.798 4 0 7.8 0.798 11.4 2.2 11.2 4.6 18.4 15.6 18.4 27.6v191.8l12.2-0.2c45.6-1 133.6-8.602 211.2-47.4 45.4-22.602 81.4-53 107.202-90 31.4-45.202 48.2-99.4 51-165.8 0.6-16.2 13.798-28.8 29.798-28.8 0.4 0 0.602 0 1 0 16.4 0.602 29.202 14.202 28.8 30.602v0 1.796c-1 23.6-8.4 147.4-62.4 275.6-34.798 82.4-81.798 149.6-139.798 199.202-63.6 54.8-140.8 88.2-229 99.6l-10.4 1.4 0.596 194.798zM687.496 493.6c38.4-32.8 71.798-75.2 99.2-125.8l21.4-39.8-38.4 23.8c-44.6 27.8-97.798 47.8-158.2 59.8-50.8 10-96 12.2-125.2 12.2-18.202 0-29.602-0.8-31.602-1-15.6-1.2-27.398-14.2-27.398-29.8v-148.6l-258.8 258.8 238.4 238.4 20.2 20.6v-150c0-15.8 12.4-29 28.202-29.8 92.398-5.2 168.198-34.2 232.198-88.8z" />
<glyph unicode="&#xe66f;" d="M266.522 492.112c0-9.2 3.6-17.8 10-24.4l272-272c6.6-6.6 15.2-10 24.4-10 4.6 0 9 0.8 13.2 2.6 13 5.4 21.202 17.8 21.202 31.8v147.6c35.6-0.798 106.798-6.6 169.398-38 35.8-17.798 64.202-41.6 84.4-70.798 24.8-35.602 37.8-78.4 40-131 0.8-18.602 15.8-33 34.4-33 0.4 0 0.6 0 1.2 0 18.8 0.6 33.8 16.398 33.4 35.2 0 0.2 0 0.4 0 0.4v1.2c-0.8 19.6-7 122.8-52 229.602-29.2 69.2-68.8 125.4-117.4 167.2-53.798 46.2-118.798 74.6-193.2 84.2v151.6c0 14-8.4 26.4-21.2 31.8-4.202 1.8-8.602 2.6-13.202 2.6-9.2 0-17.798-3.6-24.4-10l-272-272c-6.598-6.604-10.198-15.404-10.198-24.604zM538.522 401.512v-98.2l-188.8 188.8 188.8 188.8v-99.2c0-18.2 14.2-33.4 32.6-34.4v0c73.6-4.2 134-27.2 184.6-70.6 30.6-26.2 57.2-60 79.2-100.6-37.6 23.4-82.398 40.4-133.2 50.4-42.4 8.4-80.4 10.2-104.798 10.2-15.4 0-25-0.798-26.8-0.798-18.002-1.602-31.602-16.204-31.602-34.402zM382.322 193.112c11.798 11.8 11.798 30.8 0 42.4v0l-256 256.4 257.6 258c11.798 11.8 11.6 30.8 0 42.4v0c-11.8 11.8-30.8 11.6-42.4 0v0l-278.8-279c-11.798-11.8-11.798-30.6 0-42.4v0l277.202-277.602c5.798-5.798 13.6-8.798 21.2-8.798v0c7.598-0.202 15.198 2.798 21.198 8.6v0z" />
<glyph unicode="&#xe670;" d="M846.802 357.7c-6.8-44.798-22.602-86.798-45.2-124.2-14.204-23.2-31-44.8-50.204-64-0.398-0.4-0.598-0.6-1-0.8-1.398-1.398-2.796-2.6-4-4-0.796-0.798-1.598-1.6-2.398-2.398-1-0.8-1.8-1.602-2.8-2.602-1-0.798-1.8-1.6-2.8-2.6-0.796-0.798-1.598-1.6-2.598-2.2-1.8-1.6-3.602-3.202-5.402-4.6-0.796-0.602-1.598-1.202-2.2-2-1-0.8-2.2-1.8-3.2-2.602-0.8-0.6-1.598-1.2-2.2-1.798-1.2-0.8-2.2-1.8-3.402-2.6-0.796-0.602-1.398-1.202-2.2-1.8-2.598-2-5.398-4-8-6-0.2 0-0.2-0.2-0.398-0.2-1.2-0.8-2.402-1.602-3.402-2.4-0.796-0.6-1.598-1.202-2.398-1.6-1.2-0.8-2.2-1.602-3.398-2.4-0.8-0.6-1.602-1.202-2.602-1.6-1.2-0.8-2.2-1.602-3.398-2.202-1-0.6-2-1.2-2.8-1.798-2-1.202-3.8-2.4-5.8-3.602-1-0.598-1.8-1.2-2.8-1.598-1.2-0.602-2.2-1.402-3.398-2-1-0.602-2-1-2.8-1.602-1.2-0.6-2.2-1.2-3.398-1.8-1-0.598-2.204-1.2-3.204-1.798-1.796-1-3.796-2-5.796-3-1-0.6-2-1-3.204-1.6-1.2-0.602-2.398-1.2-3.598-1.8-1-0.398-2-1-3-1.398-1.2-0.602-2.402-1.202-3.602-1.602-1-0.398-2-0.8-3-1.2-2.2-1-4.598-2-6.8-2.8-1-0.398-1.796-0.8-2.796-1.2-1.402-0.602-2.602-1-4-1.602-0.8-0.398-1.8-0.6-2.602-0.998-1.398-0.602-2.8-1-4.2-1.602-0.8-0.2-1.602-0.6-2.402-0.798-5-1.8-10-3.4-15.2-5-0.598-0.202-1.2-0.4-2-0.6-1.598-0.4-3.398-1-5-1.4-0.398-0.202-1-0.202-1.398-0.4-5.602-1.6-11.402-3-17.2-4.2-0.204 0-0.402-0.202-0.8-0.202-2-0.4-3.8-0.798-5.8-1.2-21.2-4.202-43-6.202-65.2-6.202-187.2 0-339 151.8-339 339.002 0 0.2 0 0.398 0 0.598 0 8.602 0.4 17 1 25.402 4.8 63.2 26.8 121.398 61.6 170.2 10.4 14.6 22 28.4 34.4 41.2 1.4 1.6 3 3 4.4 4.4 14 13.8 29.2 26.4 45.6 37.6 47 32.2 102.4 53 162.202 58.2 9.798 0.8 19.6 1.4 29.6 1.4 3.598 0 7.2 0 10.798-0.2 1 0 2 0 3.204-0.2 2.796-0.2 5.398-0.2 8.2-0.4 1 0 1.8-0.2 2.8-0.2 3.598-0.2 7-0.6 10.598-1 0.602 0 1-0.2 1.602-0.2 3-0.4 6-0.6 9-1.2 1-0.2 1.8-0.2 2.8-0.4 3.2-0.4 6.2-1 9.398-1.4 0.398 0 0.8-0.2 1.2-0.2 3.602-0.6 7.2-1.4 10.602-2 0.398-0.2 1-0.2 1.398-0.4 3.2-0.6 6.2-1.4 9.2-2.2 0.602-0.2 1.204-0.2 1.8-0.4 7-1.8 14-3.8 21-6 0.402-0.2 0.8-0.2 1.2-0.4 3.204-1 6.402-2.2 9.602-3.2 0.2 0 0.398-0.2 0.8-0.2 6.8-2.4 13.598-5.2 20.2-8 0.398-0.2 0.8-0.4 1.2-0.6 6.602-3 13.2-6 19.602-9.4 0.2-0.2 0.598-0.2 0.8-0.4 2.796-1.4 5.598-3 8.598-4.6 0.602-0.2 1-0.6 1.602-0.8 6-3.4 12-7 17.8-10.8 0.598-0.4 1.2-0.8 1.796-1.2 2.402-1.6 4.602-3.2 7-4.8 0.602-0.4 1.204-0.8 1.8-1.2 2.8-2 5.602-4 8.2-6 0.402-0.2 0.602-0.4 1-0.8 2.402-1.8 4.602-3.6 7-5.4 0.8-0.6 1.402-1.2 2.204-1.8 2.2-1.8 4.2-3.4 6.398-5.2 0.398-0.4 1-0.8 1.398-1.2 2.602-2.2 5-4.4 7.602-6.8 0.398-0.4 1-0.8 1.398-1.4 2-2 4.204-4 6.204-5.8 0.598-0.4 1-1 1.598-1.6 1.602-1.6 3-3 4.602-4.6 1.398-1.4 2.8-2.8 4.2-4.2 1.2-1.2 2.398-2.6 3.602-4 1.398-1.6 3-3.2 4.398-5 0.602-0.6 1-1.2 1.398-1.8h-192.208c-16.598 0-30-13.4-30-30s13.402-30 30-30h286v286c0 16.6-13.398 30-30 30-16.598 0-30-13.4-30-30v-174c-47.598 50.4-108.2 88.4-176.598 108.6-0.204 0-0.402 0.2-0.8 0.2-6.2 1.8-12.602 3.6-19 5-0.402 0-0.602 0.2-1 0.2-3 0.8-6 1.4-9 2-0.2 0-0.402 0.2-0.8 0.2-3.2 0.6-6.602 1.4-9.8 2-0.2 0-0.2 0-0.398 0-3 0.6-6 1-9 1.6-0.602 0-1 0.2-1.602 0.2-6.398 1-12.8 1.8-19.2 2.6-0.602 0-1.2 0.2-2 0.2-2.8 0.2-5.398 0.6-8.2 0.8-0.602 0-1 0-1.602 0.2-3.2 0.2-6.398 0.4-9.598 0.6-0.602 0-1.204 0-1.602 0-2.602 0.2-5.398 0.2-8 0.4-0.8 0-1.602 0-2.398 0-3.204 0-6.402 0.2-9.6 0.2-220.4 0-399-178.6-399-399s178.6-399 399-399c112 0 213 46 285.398 120.2l0.204 0.202c2 2 3.796 4 5.796 6l0.204 0.2c13.598 14.6 26 30 37.398 46.6 0.2 0.202 0.2 0.4 0.398 0.4 1.402 2 2.8 4.202 4.204 6.4 0.2 0.4 0.598 0.8 0.796 1.2 1.402 2 2.602 4 4 6.202 0.402 0.4 0.602 1 1 1.4 1.204 2 2.402 4 3.8 6 0.2 0.398 0.602 1 0.8 1.398 1.2 2 2.398 4.202 3.602 6.202 0.2 0.4 0.398 0.798 0.796 1.202 1.204 2.2 2.402 4.398 3.602 6.598 0 0.202 0.2 0.202 0.2 0.402 5.2 9.798 10.2 20 14.602 30.398 0.2 0.2 0.2 0.602 0.398 0.8 1 2.2 1.8 4.398 2.8 6.398 0.2 0.602 0.602 1.402 0.8 2 0.8 2 1.598 4 2.398 6.202 0.402 0.798 0.602 1.6 1 2.4 0.8 2 1.402 4 2.2 6 0.402 0.8 0.602 1.8 1 2.6 0.602 2 1.402 4 2 6 0.402 1 0.602 1.798 0.8 2.798 0.602 2 1.2 4 1.8 6 0.2 0.8 0.602 1.8 0.8 2.602 0.598 2 1.2 4.2 1.8 6.2 0.2 0.8 0.398 1.4 0.598 2.2 2.8 10 5 20.202 7 30.402 0.2 1 0.402 2 0.602 3 0.398 2 0.598 3.798 1 5.798 0.2 1.202 0.398 2.4 0.598 3.6 0.204 1.8 0.602 3.8 0.8 5.6 0.2 1.202 0.402 2.6 0.602 3.8 0.2 1.798 0.398 3.6 0.598 5.4 0.204 1.398 0.402 2.798 0.402 4 0.2 1.798 0.398 3.6 0.598 5.398 0.204 1.402 0.204 2.8 0.402 4.202 0.2 1.798 0.2 3.6 0.398 5.202 0.2 1.398 0.2 3 0.2 4.398 0.204 1.8 0.204 3.4 0.204 5.2 0 1.602 0.2 3.202 0.2 4.8 0 1.602 0.2 3.2 0.2 4.8 0 2 0 4.2 0 6.2 0 1.2 0 2.2 0 3.4h-60c-0.198-16.002-1.602-33.402-4.198-50.202z" />
<glyph unicode="&#xe671;" d="M31 738c-16.6 0-30 13.4-30 30v0c0 16.6 13.4 30 30 30v0h962c16.6 0 30-13.4 30-30v0c0-16.6-13.4-30-30-30v0h-962zM31 418c-16.6 0-30 13.4-30 30v0c0 16.6 13.4 30 30 30v0h962c16.6 0 30-13.4 30-30v0c0-16.6-13.4-30-30-30v0h-962zM31 98c-16.6 0-30 13.4-30 30v0c0 16.6 13.4 30 30 30v0h962c16.6 0 30-13.4 30-30v0c0-16.6-13.4-30-30-30v0h-962z" />
<glyph unicode="&#xe672;" d="M554.376 448l362.798 362.8c11.8 11.8 11.8 30.8 0 42.4-11.8 11.8-30.8 11.8-42.4 0l-362.798-362.8-362.802 362.8c-11.798 11.8-30.798 11.8-42.4 0-11.6-11.8-11.798-30.8 0-42.4l362.8-362.8-362.8-362.8c-5.798-5.798-8.798-13.6-8.798-21.2s3-15.4 8.798-21.2c11.8-11.8 30.8-11.8 42.4 0l362.8 362.798 362.8-362.798c5.8-5.8 13.6-8.8 21.202-8.8 7.6 0 15.398 3 21.2 8.8 11.8 11.798 11.8 30.798 0 42.398l-362.8 362.802z" />
<glyph unicode="&#xe673;" d="M512 960c-282.8 0-512-229.2-512-512s229.2-512 512-512c282.798 0 512 229.2 512 512 0 282.8-229.2 512-512 512zM759.398 243c11.8-11.8 11.8-30.8 0-42.4-11.798-11.798-30.798-11.798-42.398 0l-205 205-205-205c-11.8-11.798-30.8-11.798-42.4 0-11.8 11.8-11.8 30.8 0 42.4l205 205-205 205c-11.8 11.8-11.8 30.8 0 42.4 11.8 11.8 30.8 11.8 42.4 0l205-205 205 205c11.798 11.8 30.798 11.8 42.398 0 11.8-11.8 11.8-30.8 0-42.4l-204.998-205 204.998-205z" />
<glyph unicode="&#xe674;" d="M512 960c282.8 0 512-229.2 512-512s-229.202-512-512-512c-282.8 0-512 229.2-512 512 0 282.8 229.2 512 512 512M512 900c-61 0-120.202-12-176-35.4-53.8-22.8-102.2-55.4-143.6-96.8-41.6-41.6-74.2-89.8-96.8-143.6-23.6-55.6-35.4-114.8-35.4-176 0-61 12-120.2 35.4-176 22.8-53.8 55.4-102.2 96.8-143.6 41.6-41.6 89.8-74.2 143.6-96.8 55.6-23.602 114.798-35.4 176-35.4 61 0 120.2 12 176 35.4 53.8 22.8 102.2 55.4 143.6 96.8 41.6 41.6 74.2 89.8 96.798 143.6 23.6 55.602 35.4 114.8 35.4 176 0 61-12 120.2-35.4 176-22.798 53.8-55.4 102.2-96.798 143.6-41.6 41.6-89.8 74.2-143.6 96.8-55.8 23.4-115 35.4-176 35.4v0zM554.4 448l204.998 205c11.8 11.8 11.8 30.8 0 42.4-11.798 11.8-30.798 11.8-42.398 0l-205-205-205 205c-11.8 11.8-30.8 11.8-42.4 0-11.8-11.8-11.8-30.8 0-42.4l205-205-205-205c-11.8-11.8-11.8-30.8 0-42.4 11.8-11.798 30.8-11.798 42.4 0l205 205 205-205c11.798-11.798 30.798-11.798 42.398 0 11.8 11.8 11.8 30.8 0 42.4l-204.998 205z" />
<glyph unicode="&#xe675;" d="M851 448c0-93.8-37.8-178.2-99.202-239.8-61.398-61.4-145.998-99.2-239.798-99.2-93.8 0-178.202 37.8-239.8 99.2-5.798 5.8-11.2 11.602-16.4 17.8h192.2c16.6 0 30 13.4 30 30s-13.4 30-30 30h-286v-286c0-16.6 13.4-30 30-30s30 13.4 30 30v63.8c0 0 0 0 0 0.2v110c72.798-77 175.798-125 290-125 220.398 0 399 178.6 399 399h-60zM272.2 687.8c61.4 61.4 146 99.2 239.8 99.2 93.798 0 178.2-37.8 239.798-99.2 5.8-5.8 11.202-11.6 16.4-17.8h-192.198c-16.6 0-30-13.4-30-30s13.4-30 30-30h286v286c0 16.6-13.4 30-30 30-16.602 0-30-13.4-30-30v-174c-72.8 77-175.8 125-290 125-220.4 0-399-178.6-399-399h60c0 93.8 37.8 178.2 99.2 239.8z" />
<glyph unicode="&#xe677;" d="M696.2 64.2c-3.4 0-7.4 1.402-8.6 7.402l-33.8 188c-0.4 2.598-1.4 12.598 7.8 17 0.2 0 0.2 0.2 0.4 0.2 6.6 3 13 6.398 19.2 10 6.2 3.598 12.2 7.8 18 12 5.4 4 10.4 8.398 15.4 12.8 4 3.796 8 7.796 11.798 11.998 3.8 4.202 7.4 8.4 10.8 13 4.8 6.202 9.2 12.798 13.2 19.6 2.602 4.602 5.202 9.2 7.4 14 2 4.4 4 8.8 5.8 13.4 2.2 5.798 4.4 12 6 18 2 7.202 3.6 14.798 4.798 22.4 0.4 3 0.8 6 1.202 9.2 0.798 7 1.2 14 1.2 21h-177.398c-9.602 0-17.4 7.8-17.4 17.4v342.8c0 9.6 7.798 17.4 17.4 17.4h371.998c9.602 0 17.4-7.8 17.4-17.4v-360c0-12-0.6-24-1.6-35.8-0.8-8.6-1.8-17-3-25.4-1.4-10-3.4-19.8-5.6-29.398-2-8.602-4.202-17-6.6-25.402-1.8-6-3.602-11.798-5.602-17.598-2.6-7.2-5.2-14.402-8.2-21.402-3.8-9.2-8-18.2-12.4-27.2-4-7.8-8.2-15.598-12.6-23.2-4-6.8-8.2-13.602-12.6-20.2-3.6-5.402-7.4-10.8-11.202-16-5.398-7.402-11.2-14.602-17-21.602-4.6-5.398-9.2-10.598-14-15.598-5.6-5.8-11.2-11.602-17.2-17.204-5.8-5.598-12-11-18.2-16.2-7.4-6.2-14.8-12-22.602-17.598-9.398-6.8-19.2-13.204-29.2-19.402-3.8-2.398-7.8-4.598-11.8-6.8-6-3.2-11.798-6.398-18-9.398-4.798-2.398-9.398-4.602-14.2-6.602-7.6-3.398-15.4-6.598-23.2-9.398-7.8-3-15.8-5.602-23.8-8-1.192-0.6-2.592-0.798-3.992-0.798M721.398 116c8.8 3.602 17.4 7.602 25.8 11.8 9 4.598 17.6 9.398 26.2 14.8 6.202 3.796 12.4 7.796 18.4 12.2 5.4 3.8 10.6 7.598 15.8 11.8 5.6 4.398 11.2 9 16.6 13.796 6.2 5.602 12.4 11.402 18.2 17.402 4 4 8 8.2 11.8 12.598 7 7.8 13.6 15.8 19.8 24.204 8.602 11.4 16.602 23.4 23.802 35.6 3.202 5.402 6.202 11 9.202 16.402 3.798 7.2 7.398 14.598 10.6 22.2 11.798 27 20.2 55.2 25 84.398 3.4 20 5 40.602 5 61.2v336.2h-324.602v-295.2h194.8v-41c0-12.4-1-24.598-2.798-36.598-1.4-8.402-3-16.602-5.202-24.8-1.6-6.2-3.6-12.2-5.6-18-1.8-5-3.8-10-6-15-2.6-6-5.6-12-8.6-17.602-1.8-3.398-3.8-6.798-5.8-10-2.4-4-5-8-7.798-12-4.602-6.598-9.602-13.2-14.8-19.2-5.2-6.2-10.8-12-16.6-17.598-6.4-6.204-13.202-12-20.4-17.402-4.6-3.398-9.2-6.8-14.2-9.8-4-2.598-8-5-12.202-7.398l23.598-133.002zM152.4 64.2c-3.4 0-7.4 1.402-8.602 7.402l-33.798 188c-0.4 2.598-1.4 12.598 7.798 17 0.202 0 0.202 0.2 0.4 0.2 67.6 30.598 114.6 98.598 114.6 177.598h-177.398c-9.602 0-17.4 7.8-17.4 17.4v342.6c0 9.6 7.798 17.4 17.4 17.4h372.2c9.6 0 17.4-7.8 17.4-17.4v-360c0-183.798-121.8-339-289-389.598-0.8-0.404-2.2-0.602-3.6-0.602M177.6 116c24.8 10.2 48.4 23.2 70.4 38.8 31.4 22.2 59.2 48.8 82.2 79.598 48 63.8 73.4 139.8 73.4 220v336.202h-324.4v-295.2h194.8v-41.2c0-85.4-46.6-164-120.202-205.598l23.802-132.602z" />
<glyph unicode="&#xe678;" d="M619.8 490.1h194.8v-41c0-12.4-1-24.6-2.8-36.6-1.4-8.4-3-16.602-5.2-24.8-1.6-6.2-3.6-12.2-5.6-18-1.8-5-3.8-10-6-15-2.602-6-5.602-12-8.602-17.6-1.798-3.4-3.798-6.798-5.798-10-2.4-4-5-8-7.8-12-4.6-6.6-9.6-13.202-14.798-19.202-5.202-6.2-10.8-12-16.602-17.598-6.398-6.2-13.2-12-20.398-17.402-4.602-3.398-9.202-6.796-14.202-9.796-4-2.602-8-5-12.2-7.402l23.6-133c8.8 3.602 17.4 7.602 25.8 11.8 9 4.602 17.6 9.398 26.2 14.8 6.2 3.8 12.4 7.8 18.4 12.2 5.4 3.8 10.6 7.602 15.798 11.8 5.602 4.398 11.202 9 16.602 13.8 6.2 5.598 12.398 11.398 18.2 17.398 4 4 8 8.2 11.8 12.602 7 7.796 13.6 15.796 19.798 24.2 8.6 11.398 16.6 23.398 23.8 35.598 3.2 5.402 6.2 11 9.2 16.402 3.8 7.2 7.4 14.598 10.6 22.2 11.8 27 20.202 55.2 25 84.398 3.4 20 5 40.602 5 61.202v336.2h-324.598v-295.2zM76 490.1h194.8v-41.2c0-85.4-46.6-164-120.2-205.598l23.8-132.602c24.798 10.2 48.398 23.2 70.398 38.8 31.4 22.2 59.202 48.8 82.202 79.602 48 63.796 73.4 139.796 73.4 219.998v336.2h-324.4v-295.2z" />
<glyph unicode="&#xe679;" d="M328.6 831.7c3.4 0 7.4-1.4 8.6-7.4l33.8-188c0.4-2.6 1.4-12.6-7.8-17-0.2 0-0.2-0.2-0.4-0.2-6.6-3-13-6.4-19.2-10-6.2-3.8-12.2-7.8-18-12-5.4-4-10.4-8.4-15.4-12.8-4-3.8-8-7.8-11.798-12-3.8-4.2-7.4-8.4-10.8-13-4.8-6.2-9.2-12.8-13.2-19.6-2.602-4.6-5.202-9.2-7.4-14-2-4.4-4-8.8-5.8-13.4-2.2-5.8-4.4-12-6-18-2-7.2-3.6-14.8-4.798-22.4-0.4-3-0.8-6-1.202-9.2-0.798-7-1.2-14-1.2-21h177.4c9.6 0 17.398-7.798 17.398-17.398v-342.602c0-9.598-7.798-17.398-17.398-17.398h-372c-9.602 0-17.4 7.8-17.4 17.398v360c0 12 0.6 24 1.6 35.8 0.8 8.6 1.8 17 3 25.4 1.4 10 3.4 19.8 5.6 29.4 2 8.6 4.202 17 6.6 25.4 1.8 6 3.602 11.8 5.602 17.6 2.6 7.2 5.2 14.4 8.2 21.4 3.8 9.2 8 18.2 12.4 27.2 4 7.8 8.2 15.6 12.6 23.2 4 6.8 8.2 13.6 12.6 20.2 3.6 5.4 7.4 10.8 11.202 16 5.398 7.4 11.2 14.6 17 21.6 4.6 5.4 9.2 10.6 14 15.6 5.6 5.8 11.2 11.6 17.2 17.2 5.8 5.6 12 11 18.2 16.2 7.4 6.2 14.8 12 22.602 17.6 9.398 6.8 19.2 13.2 29.2 19.4 3.8 2.4 7.8 4.6 11.8 6.8 6 3.2 11.798 6.4 18 9.4 4.798 2.4 9.398 4.6 14.2 6.6 7.6 3.4 15.4 6.6 23.2 9.4 7.8 3 15.8 5.6 23.8 8 1.192 0.4 2.592 0.6 3.992 0.6M303.4 779.9c-8.8-3.6-17.4-7.6-25.8-11.8-9-4.6-17.6-9.4-26.2-14.8-6.202-3.8-12.4-7.8-18.4-12.2-5.4-3.8-10.6-7.6-15.8-11.8-5.6-4.4-11.2-9-16.6-13.8-6.2-5.6-12.4-11.4-18.2-17.4-4-4-8-8.2-11.8-12.6-7-7.8-13.6-15.8-19.8-24.2-8.8-11.2-16.8-23-23.8-35.2-3.202-5.4-6.202-11-9.202-16.4-3.798-7.2-7.398-14.6-10.6-22.2-11.798-27-20.2-55.2-25-84.4-3.4-20-5-40.6-5-61.2v-336.4h324.802v295h-195v41.2c0 12.402 1 24.6 2.798 36.6 1.4 8.4 3 16.6 5.202 24.8 1.6 6.2 3.6 12.2 5.6 18 1.8 5 3.8 10 6 15 2.6 6 5.6 12 8.6 17.8 1.8 3.4 3.8 6.8 5.8 10 2.4 4 5 8 7.798 12 4.602 6.6 9.602 13.2 14.8 19.2 5.2 6.2 10.8 12 16.6 17.6 6.4 6.2 13.202 12 20.4 17.4 4.6 3.4 9.2 6.8 14.2 9.8 4 2.6 8 5 12.202 7.4l-23.6 132.6zM872.398 831.7c3.4 0 7.4-1.4 8.602-7.4l33.798-188c0.4-2.6 1.4-12.6-7.798-17-0.202 0-0.202-0.2-0.4-0.2-67.6-30.6-114.6-98.4-114.6-177.402h177.398c9.602 0 17.4-7.798 17.4-17.398v-342.6c0-9.598-7.798-17.398-17.4-17.398h-372.198c-9.6 0-17.4 7.8-17.4 17.398v360c0 183.8 121.8 339 289 389.6 0.8 0.2 2.2 0.4 3.598 0.4M847.2 779.9c-24.8-10.2-48.4-23.2-70.4-38.8-31.4-22.2-59.2-48.8-82.2-79.6-48-63.8-73.4-139.8-73.4-220v-336.398h324.798v295.398h-195.198v41.2c0 85.402 46.6 164 120.202 205.6l-23.802 132.6z" />
<glyph unicode="&#xe67a;" d="M747.8 406v41.2c0 85.4 46.6 164 120.202 205.6l-24 132.6c-24.8-10.2-48.4-23.2-70.4-38.8-31.4-22.2-59.202-48.8-82.202-79.6-48-63.8-73.4-139.8-73.4-220v-336.4h324.8v295.4h-195zM204 405.898v41c0 12.402 1 24.602 2.798 36.602 1.4 8.4 3 16.6 5.202 24.8 1.6 6.2 3.6 12.2 5.6 18 1.8 5 3.8 10 6 15 2.6 6 5.6 12 8.6 17.8 1.8 3.4 3.8 6.8 5.8 10 2.4 4 5 8 7.798 12 4.602 6.6 9.602 13.2 14.8 19.2 5.2 6.2 10.8 12 16.6 17.6 6.4 6.2 13.202 12 20.4 17.4 4.6 3.4 9.2 6.8 14.2 9.8 4 2.6 8 5 12.202 7.4l-23.8 132.8c-8.798-3.6-17.4-7.6-25.798-11.8-9-4.6-17.602-9.4-26.202-14.8-6.2-3.8-12.4-7.8-18.4-12.2-5.398-3.8-10.6-7.6-15.798-11.8-5.6-4.4-11.202-9-16.6-13.8-6.202-5.6-12.4-11.4-18.202-17.4-4-4-8-8.2-11.798-12.6-7-7.8-13.602-15.8-19.8-24.2-8.6-11.4-16.6-23.4-23.8-35.6-3.2-5.4-6.2-11-9.2-16.4-3.8-7.2-7.4-14.6-10.6-22.2-11.6-26.8-20-55-25-84.2-3.4-20-5-40.6-5-61.2v-336.4h324.798v295.2h-194.8z" />
<glyph unicode="&#xe67c;" d="M512 960c282.8 0 512-229.2 512-512s-229.202-512-512-512c-282.8 0-512 229.2-512 512 0 282.8 229.2 512 512 512M512 900c-61 0-120.202-12-176-35.4-53.8-22.8-102-55.4-143.6-97-41.6-41.6-74.2-89.8-97-143.6-23.4-55.8-35.4-115-35.4-176s12-120.2 35.4-176c22.8-53.8 55.4-102.2 96.8-143.6 41.6-41.6 89.8-74.202 143.6-96.8 55.602-23.6 114.8-35.4 176-35.4 61 0 120.202 12 176 35.4 53.8 22.8 102.202 55.4 143.6 96.8 41.6 41.6 74.2 89.8 96.8 143.6 23.6 55.6 35.4 114.8 35.4 176 0 61-12 120.2-35.4 176-22.8 53.8-55.4 102.2-96.8 143.6-41.4 41.6-89.6 74.2-143.4 97-55.8 23.4-115 35.4-176 35.4v0zM586.8 197c0-39-28.798-70.6-76.2-70.6-44.6 0-73.4 31.6-73.4 70.6 0 40 29.8 70.6 75.202 70.6 45.598 0 73.398-30.6 74.398-70.6zM464.4 442.4v0 0 0 0zM464.6 442.6v0 0c-0.2 0-0.2-0.2 0 0v0 0zM704.2 619c-0.6 5-1.6 11.4-2.2 14.2-0.602 2.8-2.8 11.8-3.602 14.2-0.6 2.4-3.398 9.8-4 11.6-0.6 1.8-3.6 8.2-4.6 10.6-1.2 2.4-5.6 10.2-7 12.6-1.4 2.4-7.4 11-9.6 13.8-2.2 3-10.4 12.2-12.6 14.6-2.202 2.4-11.4 10.8-14.6 13.6-3.202 2.8-14 10.6-16.202 12-2.2 1.4-9.798 5.8-12 7.2-2.2 1.2-10 5-12.2 6s-9 3.8-10.4 4.2c-1.4 0.6-7.798 2.6-11 3.8 0 0 0 0-3 0.8-8.2 2.4-16.798 4.2-25.6 5.6-3.8 0.6-7.6 1.2-11.6 1.6-6.6 0.8-13.202 1.2-20 1.4-3.202 0.2-6.4 0.2-9.6 0.2-6.202 0-6.202 0-6.202 0-6.794-0.4-15.794-1-20.194-1.4-4.4-0.4-18.4-2.6-21.4-3.2-3.2-0.6-13.2-3-15.6-3.8-2.4-0.6-10.4-3.2-12.4-4-2.2-0.8-9.8-3.8-12.6-5-2.8-1.2-11.6-5.6-13.8-6.8-2.2-1.2-9-5.4-10.2-6.2-1.4-0.8-6.8-4.8-9.6-6.8-2.8-2-11.4-9.6-14-12-2.602-2.4-10.202-10.6-11.8-12.4-1.6-2-7-8.8-8.6-11-1.6-2-5.6-8.4-6.202-9.2-0.6-0.8-3.2-5.4-4.6-8.2-1.6-2.6-6.2-12.2-7.4-14.8-1.2-2.6-4.6-11.4-5.398-13.4-0.8-2-3.8-11.8-5.202-17.2-1.4-5.4-5-22.2-5.4-25.2-0.398-2.8-2.398-17.2-3.398-25.4s16-17 37.798-19.6l42.4-5c21.8-2.6 40.8 1.6 42 9.6 1.2 7.8 3 18 3.8 22.6 0.798 4.6 4.398 17.4 5.398 20.2s4.8 11.6 6.202 14.2c1.4 2.8 6.4 10.2 7.6 11.8 1.2 1.6 6.2 6.4 7.8 7.8 1.6 1.4 7.798 5.4 9.6 6.4 1.798 1 8.4 3.6 10 4.2 1.6 0.6 9 2 11.6 2.4 2.8 0.4 12.8 0.6 15.4 0.6 2.6-0.2 10.798-1.4 13.4-2 2.398-0.6 10-3.2 11.798-4.2 1.8-1 8.202-4.8 10.4-6.2 2.2-1.4 9-7.8 10.8-9.6 1.798-1.8 6.6-8.2 7.6-10 1.2-1.8 4.2-8.4 5-10.4 0.798-2.2 2.4-9.4 2.6-11.2 0.2-1.8 0.4-8 0.2-9.8 0-1.8-1.2-7.8-2-10.2-0.798-2.4-4.2-9.4-5-10.6-0.798-1.2-5-6.4-5.798-7.6-1-1.2-5.6-6.2-7.8-8.4-2.2-2.2-10.6-10.2-12.6-12.2-2-1.8-11.2-10.2-15.6-14-4.202-3.8-15.202-14-16.4-15-1.2-1.2-7.4-7.2-11.2-11-3.8-3.8-13.602-15-15.602-17.4-2-2.4-7.398-10-8.398-11.6-1-1.4-5-7.8-6.602-10.6-1.798-2.8-6.398-12.2-7.398-14.4-1-2-3.202-7.4-3.202-7.4v0 0 0c0 0-0.6-1.8-1.4-4.202-0.798-2.398-3.2-10.398-4-13-0.798-2.6-2.798-11.798-3.2-14.2s-1.8-12.2-2.2-16.6c-0.4-4.4-1.202-17.6-1.202-19.202 0-1.798 0-7 0-7.798 0-0.8 0-5.202 0.202-7.6 0-2.4 0.398-16.8 0.6-24.8 0.2-8 18.4-14.6 40.4-14.6h37.804c22 0 40.202 6.6 40.202 14.798 0.2 8 0.398 19.602 0.6 25.602 0.2 6 1.6 21.798 2 25.398 0.4 3.8 2.798 12.8 4.2 16.8 1.4 3.8 7.6 13.8 9.202 15.6 1.6 1.8 10.6 11 12.798 13.202 2.202 2.2 10.8 10.2 12.6 11.798 1.8 1.6 8.6 7.8 10.8 9.8 2.2 2 9 8.2 10.6 9.8 1.6 1.6 7.4 7.2 9.4 9.2s8.6 8.8 10.4 10.8c1.798 2 8.6 9.6 11.2 12.6s10.6 13.6 13 17c2.4 3.4 8.6 13.8 9.6 15.6 1 1.8 4.202 8.8 5.202 11.2 1 2.4 4.398 11.6 5.398 14.6s3.4 13.6 4.202 16.8c0.6 3.2 2 14.4 2.2 17.6 0.196 3.204-0.004 25.204-0.604 30.404z" />
<glyph unicode="&#xe67d;" d="M460.774 857.816v-358.588h-358.588v358.588h358.588M393.538 790.58h-224.118v-224.118h224.118v224.118zM460.774 396.774v-358.59h-358.588v358.59h358.588M393.538 329.54h-224.118v-224.122h224.118v224.122zM921.816 857.816v-358.588h-358.588v358.588h358.588M854.578 790.58h-224.116v-224.118h224.118v224.118h-0.002zM539.216 38.184v358.91h201.706v-167.45h-48.026v119.586h-105.658v-311.046zM692.896 140.636v51.232h48.026v-51.232zM795.664 267.106h76.364v81.96h-76.364v48.028h124.386v-178.016h-124.386v48.028zM795.664 349.23v0 0 0zM846.574 38.184v27.214h-74.922v126.47h48.028v-78.442h74.922v-75.242zM639.746 65.398v48.028h77.16v-48.028z" />
<glyph unicode="&#xe67f;" d="M704 512v256h64c0 0 1.2 90.4 1.2 128s-1.2 64-65.2 64-192 0-192 0-128 0-192 0-67.8-33.6-65.4-64 1.4-128 1.4-128h64.8l-0.8-256-192-192h277.4l77.2-360.2c3-13.8 15.2-23.8 29.4-23.8s26.4 10 29.4 23.8l77.2 360.2h277.4l-192 192zM316.2 828c-0.2 27-0.6 56-1.6 71.8 1.6 0.2 3.4 0.2 5.4 0.2h384c1.798 0 3.6 0 5.2 0 0-1.4 0-2.8 0-4 0-16.4-0.2-43.2-0.4-68h-392.6zM512 109.2l-45.2 210.8h90.4l-45.2-210.8zM272.8 380l107 107v24.8l0.8 256v0.2h263.4v-280.8l107.2-107.2h-478.4z" />
<glyph unicode="&#xe680;" d="M907 527c0-27.062-20.595-49-46-49s-46 21.938-46 49c0 27.062 20.595 49 46 49 25.405 0 46-21.938 46-49zM984 675h-152v245c0 22-18 40-40 40h-560c-22 0-40-18-40-40v-245h-152c-22 0-40-18-40-40v-467c0-22 18-40 40-40h152v-151c0-22 18-40 40-40h560c22 0 40 18 40 40v151h152c22 0 40 18 40 40v467c0 22-18 40-40 40zM252 900h520v-225h-520v225zM772-3h-520v374h520v-374zM964 188h-132v243h-640v-243h-132v427h904v-427zM319 270.4c-16.6 0-30 13.4-30 30v0c0 16.6 13.4 30 30 30v0h384c16.6 0 30-13.4 30-30v0c0-16.6-13.4-30-30-30v0h-384zM319 33c-16.6 0-30 13.4-30 30v0c0 16.6 13.4 30 30 30v0h384c16.6 0 30-13.4 30-30v0c0-16.6-13.4-30-30-30v0h-384zM319 151.6c-16.6 0-30 13.4-30 30v0c0 16.6 13.4 30 30 30v0h311c16.6 0 30-13.4 30-30v0c0-16.6-13.4-30-30-30v0h-311z" />
<glyph unicode="&#xe681;" d="M832 498h-270v270c0 27.6-22.4 50-50 50s-50-22.4-50-50v-270h-270c-27.6 0-50-22.4-50-50s22.4-50 50-50h270v-270c0-27.6 22.4-50 50-50s50 22.4 50 50v270h270c27.6 0 50 22.4 50 50s-22.4 50-50 50z" />
<glyph unicode="&#xe682;" d="M512 960c-282.8 0-512-229.2-512-512s229.2-512 512-512c282.798 0 512 229.2 512 512 0 282.8-229.2 512-512 512zM832 398h-270v-270c0-27.6-22.4-50-50-50s-50 22.4-50 50v270h-270c-27.6 0-50 22.4-50 50s22.4 50 50 50h270v270c0 27.6 22.4 50 50 50s50-22.4 50-50v-270h270c27.6 0 50-22.4 50-50s-22.4-50-50-50z" />
<glyph unicode="&#xe683;" d="M512 960c282.8 0 512-229.2 512-512s-229.202-512-512-512c-282.8 0-512 229.2-512 512 0 282.8 229.2 512 512 512M512 912c-62.6 0-123.4-12.2-180.6-36.4-55.2-23.4-104.8-56.8-147.4-99.6s-76-92.2-99.4-147.6c-24.4-57-36.6-117.8-36.6-180.4s12.2-123.4 36.4-180.6c23.4-55.2 56.8-104.8 99.6-147.4 42.6-42.6 92.2-76 147.6-99.4 57.2-24.2 118-36.4 180.6-36.4s123.4 12.202 180.6 36.4c55.202 23.4 104.8 56.8 147.6 99.4 42.602 42.6 76 92.2 99.4 147.6 24.202 57.202 36.4 118 36.4 180.6 0 62.6-12.2 123.4-36.4 180.6-23.4 55.2-56.798 104.8-99.4 147.6-42.6 42.6-92.2 76-147.6 99.4-57.402 24-118.2 36.2-180.8 36.2v0zM832 498h-270v270c0 27.6-22.4 50-50 50s-50-22.4-50-50v-270h-270c-27.6 0-50-22.4-50-50s22.4-50 50-50h270v-270c0-27.6 22.4-50 50-50s50 22.4 50 50v270h270c27.6 0 50 22.4 50 50s-22.4 50-50 50z" />
<glyph unicode="&#xe687;" d="M320.5 896l262.2-333h249.8c182.398 0 192-115 192-115s-9.602-115-192-115h-249.8l-262.2-333h-104.4l130.2 333h-217.8l-48-109h-81l39 224-39 224h81l48-109h217.8l-130.2 333h104.4M316.5 804.2l117.798-301h-344.398l7.798-44.8 1.8-10.4-1.8-10.2-7.798-44.8h344.2l-32-81.8-85.8-219.2 237.2 301h279c56.798 0 98 12.8 119.2 37 5.8 6.8 9.2 13.2 11 18-2.2 5.6-6.6 13.8-15 22-22.2 21.6-62.2 33-115.4 33h-278.8l-18 22.8-219 278.4z" />
<glyph unicode="&#xe68a;" d="M984 878h-944c-22 0-40-18-40-40v-780c0-22 18-40 40-40h944c22 0 40 18 40 40v780c0 22-18 40-40 40zM964 78h-904v740h904v-740zM146 114.6h732c17 0 31 14 31 31v604.8c0 17-14 31-31 31h-732c-17 0-31-14-31-31v-604.8c0-17 14-31 31-31zM175 721.4h674v-405l-152 152-101-101-236 236-185-185v303zM175 337c3.798 1.4 7.2 3.6 10.2 6.6l174.8 174.8 193.6-193.6-47.8-47.8c-11.798-11.8-11.798-30.8 0-42.4 11.8-11.798 30.8-11.798 42.4 0l148.8 148.8 148.798-148.8c1-1 2.202-2 3.202-2.798v-57.4h-674v162.598zM704 536c34.2 0 62 27.8 62 62s-27.8 62-62 62c-34.202 0-62-27.8-62-62s27.8-62 62-62z" />
<glyph unicode="&#xe68b;" d="M782-61.6c-3.8 1-219.202 55.798-471.6 308v0c-252.2 252.4-307 467.8-308 471.6v0c-1.8 7-2.4 13.8-2.4 20.6v0c0 13.2 2.6 26 7.2 38.2v0c4.6 12 11 23.6 20.8 33.4v0 0l131 131.2c11.798 12 28 18.8 44.2 18.6v0c19 0.2 37.8-9.4 49.6-25.4v0l139.4-186c6.8-9 11.202-19 14.202-29.2v0c3-10.2 4.398-21 4.398-31.6v0c0-11.2-1.6-22.6-6-33.8v0l-33.4-84.6c-0.8-2-1.4-5.2-1.4-9v0c0-4.4 1-9.6 2.6-14v0c1.6-4.4 4-7.8 5.6-9.6v0l222.6-222.6c1.602-1.798 5.202-4 9.602-5.6v0c4.398-1.6 9.6-2.6 13.998-2.6v0c3.8 0 7.202 0.6 9 1.4v0l84.6 33.4c11.2 4.398 22.6 6 33.798 6v0c10.6 0 21.4-1.602 31.6-4.4v0c10.202-3 20.202-7.4 29.202-14.202v0l186-139.398c16-11.8 25.4-30.602 25.4-49.602v0c0-16.2-6.602-32.2-18.602-44.2v0l-131.198-130.998c-9.8-9.6-21.2-16.2-33.4-20.8v0c-12.2-4.6-25-7-38.2-7.2v0c-6.8 0-13.6 0.8-20.6 2.4v0zM820.6-3.4c6 2.202 11 5.4 13.2 7.8v0l131.202 131.2c1.798 2 1.798 3 2 3.8v0c-0.202 1 0 1.798-2.4 3.798v0l-186 139.4c-2 1.6-6.202 3.6-11 5v0c-4.8 1.4-10.6 2.202-15.6 2.202v0c-5.4 0-10.202-1-12.8-2v0l-84.6-33.4c-10-4-20.202-5.4-30.202-5.4v0c-11.6 0-22.998 2.2-33.998 6.2v0c-10.8 4-21.202 10-30 18.8v0l-222.602 222.4c-8.798 8.8-14.798 19.2-18.798 30v0c-4 10.8-6.202 22.4-6.202 34v0c0 10 1.602 20.2 5.4 30.2v0l33.4 84.6c1 2.6 2 7.4 2 12.8v0c0 5.2-0.8 10.8-2.2 15.6v0c-1.4 4.8-3.4 8.8-5 11v0l-139.4 186c-2 2.4-3 2.4-3.8 2.4v0c-0.798 0-1.798-0.2-3.798-2v0l-131.002-131.2c-2.202-2.2-5.602-7.2-7.8-13v0c-2.2-6-3.4-12.8-3.4-18.2v0c0-2.8 0.202-5 0.6-6.6v0 0-0.2c0-0.2 0.202-0.8 0.4-1.4v0c0.4-1.4 1-3.4 1.8-6.4v0c1.798-5.8 4.6-14.4 8.798-25.6v0c8.4-22.6 22.202-55.4 43.602-96v0c43-81.2 116.4-193.4 238.2-315.2v0c239.4-239.4 441.6-292.4 445.4-293.4v0 0 0 0c1.6-0.4 3.798-0.8 6.6-0.602v0c5.2 0.002 12.2 1.202 18 3.402v0z" />
<glyph unicode="&#xe68c;" d="M333 727.8c5.796 0 11.4-2.8 15.4-8l80.396-107.2c7.4-9.8 9.8-27.2 5.204-38.6l-19.204-48.8c-4.6-11.4-1.2-27.8 7.604-36.6l128.396-128.4c6-6 16-9.6 25.204-9.6 4 0 7.796 0.6 11.2 2l48.8 19.2c4 1.6 8.6 2.398 13.396 2.398 9.204 0 18.8-2.602 25.204-7.398l107.2-80.4c9.8-7.4 10.8-20.6 2-29.202l-75.6-75.602c-7-7-19-11.2-29.6-11.2-2.8 0-5.4 0.2-7.8 1 0 0-121.396 30.398-264.396 173.398-143 143-173.4 264.202-173.4 264.202-3 12 1.6 28.8 10.4 37.4l75.6 75.6c3.996 3.804 8.996 5.804 13.996 5.804M333 787.8c-21 0-41-8.4-56.204-23.6l-75.6-75.6c-23.4-23.4-34.2-62.2-26.2-94.4 1-3.8 10.2-39 38.2-92 36.6-69.2 87.4-136.6 151-200.2s131-114.4 200.204-151c52.996-28 88.2-37.2 91.996-38.2 7.204-1.8 14.6-2.604 22.4-2.604 27 0 54 10.8 72 28.8l75.6 75.6c16.4 16.4 25 39 23.4 61.8-1.596 22.804-13.196 43.804-31.796 57.804l-107.2 80.4c-16.6 12.4-38.796 19.4-61.2 19.4-12.6 0-24.6-2.2-35.6-6.6l-32.8-13-104.2 104.2 13 32.8c12.2 30.6 6.796 70.4-13 96.8l-80.4 107.2c-15.6 20.8-38.6 32.4-63.6 32.4v0zM512 960c282.8 0 512-229.2 512-512s-229.204-512-512-512c-282.8 0-512 229.2-512 512 0 282.8 229.2 512 512 512M512 900c-61 0-120.204-12-176-35.4-53.8-22.8-102.2-55.4-143.6-96.8-41.6-41.6-74.2-89.8-96.8-143.6-23.6-55.6-35.4-114.8-35.4-176 0-61 12-120.2 35.4-176 22.8-53.8 55.4-102.2 96.8-143.6 41.6-41.6 89.8-74.2 143.6-96.8 55.6-23.604 114.796-35.4 176-35.4 61 0 120.2 12 176 35.4 53.8 22.8 102.2 55.4 143.6 96.8 41.6 41.6 74.2 89.8 96.796 143.6 23.6 55.602 35.4 114.8 35.4 176 0 61-12 120.202-35.4 176-22.796 53.8-55.4 102.2-96.796 143.6-41.6 41.6-89.8 74.2-143.6 96.8-55.8 23.4-115 35.4-176 35.4v0z" />
<glyph unicode="&#xe68d;" d="M811.396 268.4l-119 89.2c-7.2 5.4-17.796 8.4-28 8.4-5.396 0-10.6-0.8-15-2.6l-53.996-21.4c-3.8-1.6-8.204-2.2-12.604-2.2-10.396 0-21.2 3.796-28 10.6l-142.396 142.4c-9.604 9.6-13.4 28-8.4 40.6l21.4 54c5 12.6 2.396 32-5.8 42.8l-89.2 119c-4.4 5.8-10.8 9-17 9-5.4 0-10.8-2.2-15.4-6.6l-84-84c-9.6-9.6-14.8-28.4-11.6-41.6 0 0 33.6-134.6 192.396-293.4 158.604-158.6 293.4-192.4 293.4-192.4 2.798-0.6 5.6-1 8.6-1 11.8 0 25.204 4.8 32.8 12.604l84 83.998c9.8 9.998 8.8 24.598-2.2 32.598zM512 960c282.8 0 512-229.2 512-512s-229.204-512-512-512c-282.8 0-512 229.2-512 512 0 282.8 229.2 512 512 512M512 900c-61 0-120.204-12-176-35.4-53.8-22.8-102.2-55.4-143.6-96.8-41.6-41.6-74.2-89.8-96.8-143.6-23.6-55.6-35.4-114.8-35.4-176 0-61 12-120.2 35.4-176 22.8-53.8 55.4-102.2 96.8-143.6 41.6-41.6 89.8-74.2 143.6-96.8 55.6-23.604 114.796-35.4 176-35.4 61 0 120.2 12 176 35.4 53.8 22.8 102.2 55.4 143.6 96.8 41.6 41.6 74.2 89.8 96.796 143.6 23.6 55.602 35.4 114.8 35.4 176 0 61-12 120.202-35.4 176-22.796 53.8-55.4 102.2-96.796 143.6-41.6 41.6-89.8 74.2-143.6 96.8-55.8 23.4-115 35.4-176 35.4v0z" />
<glyph unicode="&#xe68e;" d="M998.596 188.8l-186 139.398c-9 6.8-19 11.202-29.202 14.202-10.2 3-21 4.4-31.6 4.4-11.2 0-22.6-1.602-33.798-6l-84.602-33.4c-2-0.8-5.2-1.4-9-1.4-4.398 0-9.6 1-13.998 2.6-4.4 1.6-7.8 4-9.602 5.6l-222.6 222.6c-1.798 1.6-4 5.2-5.6 9.6s-2.6 9.6-2.6 14c0 3.8 0.6 7.2 1.4 9l33.398 84.6c4.4 11.2 6 22.6 6 33.8 0 10.6-1.6 21.4-4.398 31.6-3 10.2-7.4 20.2-14.202 29.2l-139.4 186c-11.798 16-30.6 25.4-49.6 25.4-16.2 0-32.2-6.6-44.2-18.6l-131-131.2c-9.8-9.8-16.202-21.4-20.8-33.4-4.6-12.2-7.2-25.2-7.2-38.2 0-6.8 0.6-13.6 2.4-20.6 1-3.8 55.798-219.2 308-471.6 252.2-252.4 467.798-307.202 471.6-308 6.798-1.8 13.798-2.4 20.6-2.4 13.2 0 26 2.6 38.2 7.2 12.202 4.602 23.6 11.202 33.4 20.8l131.2 131.2c12 12 18.8 28 18.602 44.202 0.202 18.798-9.398 37.598-25.398 49.398z" />
<glyph unicode="&#xe68f;" d="M997.474 909.6c-4 5.2-7.796 10.4-12.398 15s-10 8.4-15 12.4c-52.2 41.2-92.602 30.2-184.2-61.4l-677.8-677.6c-6.6-6.6-11.8-14.2-15.6-22.2v0 0c-1.202-2.8-2.4-5.602-3.4-8.4l-83.6-207.2-3.8-8.6c-2.2-5-2.2-8.798-0.2-10.6 1.798-1.8 5.6-2 10.6 0.2l8.6 3.8 206.8 83.4c2.798 1 5.6 2.2 8.398 3.4v0 0c8 3.798 15.602 9 22.202 15.6l678 678c91.6 91.6 102.6 132.2 61.398 184.2zM624.074 498.2l-365.8-365.8c-31.2-31.202-71.2-41.8-89.4-23.8v0 0c-18 18-7.2 58.202 23.8 89.4l554.798 554.8c8.602 8.6 18.8 18.8 29.602 29.6l65.398-65.4-55.796-55.8-162.602-163zM935.274 809.2l-50.398-50.4-65.402 65.4c19.204 19.2 37.402 37.4 50.402 50.4 44.398 44.4 73 7.4 73 7.4s36.598-28.4-7.602-72.8z" />
<glyph unicode="&#xe692;" d="M677.5 830.7c19.2 0 46-11.2 59.6-24.8l230.2-230.2c13.6-13.6 24.8-40.4 24.8-59.6v-545.2c0-19.202-15.8-35-35-35h-601.2c-19.202 0-35 15.798-35 35v825c0 19.2 15.798 35 35 35h321.6M677.1 770.7h-296.2v-774.6h551v519.8c-0.4 4.4-4.4 14.2-7.4 17.6l-229.6 230c-3.4 2.8-13.4 7-17.8 7.2v0zM747.3 521.1c-36 0.2-64.798 29-65 65v0 205h60v-205c0-1.4 0.4-2.4 1.4-3.4v0c1-1 2.202-1.4 3.4-1.4v0h212.6v-60l-212.4-0.2zM287.9 125.5h-196v774.6h551v-33h60v53c0 22-18 40-40 40h-591c-22 0-40-18-40-40v-814.6c0-22 18-40 40-40h216v60z" />
<glyph unicode="&#xe693;" d="M254.2-31.388c-140.4 0-254 113.8-254.2 254v0c0 66.8 25.798 127.8 68 173v0l0.2 0.202 513.6 522.6c11.602 11.8 30.602 12 42.4 0.4v0c11.8-11.6 12-30.6 0.4-42.4v0l-513-521.8c-32-34.798-51.6-81-51.6-132v0c0-53.6 21.6-102 56.798-137.2v0c35.202-35.2 83.602-56.8 137.202-56.8v0c49.6 0 94.4 18.4 128.798 48.8v0l538.802 538.8c22.4 22.6 36.2 53.2 36.2 87.6v0c0 34.2-13.798 65-36.2 87.6v0c-22.6 22.4-53.202 36.2-87.6 36.2v0c-27.602 0-53-9-73.602-24.2v0l-446.8-448.802c-8.2-8.2-13.2-19.2-13.2-31.798v0c0-24.6 20-44.6 44.6-44.6v0c10.2 0 19.2 3.2 26.798 8.798v0l233.8 233.8c11.798 11.8 30.798 11.8 42.4 0v0c11.798-11.8 11.798-30.8 0-42.4v0l-237.6-237.4c-17.8-14.4-40.8-23-65.4-23v0c-57.8 0-104.6 46.8-104.6 104.6v0c0 29 12 55.4 31 74.4v0l-0.202-0.2 20.4 20.6 431 432.6c30.798 23.6 69.798 37.6 111.6 37.6v0c101.6 0 183.798-82.4 183.798-183.8v0c0-50.6-20.6-96.8-53.798-130v0l-540.6-540.6c-44.994-40.2-104.394-64.6-169.394-64.6v0 0 0z" />
</font>
</defs>
</svg>
